<svg width="46" height="46" viewBox="0 0 46 46" fill="none" xmlns="http://www.w3.org/2000/svg">
<circle cx="22.75" cy="22.9404" r="22" fill="white" stroke="#EDEDED"/>
<mask id="mask0_5615_66752" style="mask-type:alpha" maskUnits="userSpaceOnUse" x="0" y="0" width="46" height="46">
<circle cx="22.75" cy="22.9404" r="22.5" fill="white"/>
</mask>
<g mask="url(#mask0_5615_66752)">
<path d="M38.2639 22.2784C37.2479 23.306 35.0467 24.1881 33.9638 24.601C32.4842 25.1666 31.8277 25.3667 30.9999 25.6409C30.0629 25.9503 28.1885 26.5275 28.1885 26.5275C32.0714 27.7073 34.8078 28.063 34.8078 28.063C34.8078 28.063 36.0826 27.662 38.1022 26.563C39.1958 25.9974 39.7339 25.6166 40.1188 25.2527C40.2607 25.1221 40.6272 24.7338 40.7184 24.2371C40.7242 24.2008 40.7419 24.1058 40.7419 24.0122C40.7419 24.0122 40.7419 23.9464 40.736 23.8892C40.7338 23.8233 40.7224 23.7792 40.7224 23.7792C40.7224 23.7792 40.7007 23.6614 40.672 23.5787C40.6423 23.496 40.5173 23.2409 40.3147 23.0752C40.1795 22.9634 39.9457 22.6847 39.0987 22.3817C38.8109 22.2799 38.3448 22.186 38.3448 22.186L38.2639 22.2784Z" fill="url(#paint0_linear_5615_66752)"/>
<path d="M40.7413 23.986C40.7413 23.986 40.7354 23.876 40.709 23.7828C40.6884 23.6998 40.652 23.6205 40.5972 23.5371C40.531 23.438 40.4417 23.3216 40.3097 23.1929C40.2101 23.0972 40.101 23.0126 39.9694 22.9229C39.4396 22.5697 38.7559 22.3707 38.1509 22.2866C37.2131 22.1598 36.1375 22.1822 36.0357 22.1785C35.6898 22.1736 33.4548 22.1923 32.8803 22.2028C30.3288 22.2563 27.2053 22.2634 26.387 22.2634C17.9401 22.3027 14.2634 22.1175 10.1713 21.2826C6.69014 20.5789 4.75879 19.9105 4.75879 19.9105C7.82932 19.8024 25.7452 19.046 29.0135 18.9577C31.1533 18.8964 32.6726 18.8833 33.8882 18.9547C34.5117 18.9903 35.0917 19.0441 35.8203 19.1702C36.4735 19.2839 37.0668 19.4769 37.4124 19.6075C38.1402 19.8817 38.7537 20.2782 39.057 20.6844C39.057 20.6844 39.1467 20.7779 39.2683 20.944C39.4047 21.1371 39.5632 21.3746 39.6168 21.4632C40.0598 22.1463 40.27 22.5753 40.3432 22.725C40.4222 22.8821 40.4921 23.0452 40.5601 23.2049C40.6266 23.3635 40.6538 23.4596 40.6751 23.5266C40.7218 23.6946 40.7332 23.8476 40.7354 23.882L40.7413 23.986Z" fill="#CE210F"/>
</g>
<defs>
<linearGradient id="paint0_linear_5615_66752" x1="36.9695" y1="21.0305" x2="32.3151" y2="28.9527" gradientUnits="userSpaceOnUse">
<stop stop-color="#E6EBEF"/>
<stop offset="0.0764" stop-color="#BBCEE5"/>
<stop offset="0.1854" stop-color="#85A9D8"/>
<stop offset="0.2796" stop-color="#5D8FCF"/>
<stop offset="0.3543" stop-color="#457EC9"/>
<stop offset="0.4" stop-color="#3C78C7"/>
<stop offset="0.9" stop-color="#2E5C99"/>
</linearGradient>
</defs>
</svg>
