<svg width="30" height="30" viewBox="0 0 30 30" fill="none" xmlns="http://www.w3.org/2000/svg">
<circle cx="15" cy="15" r="14.5" fill="white" stroke="#EDEDED"/>
<path d="M25.0396 19.4687L15.1699 14.7162V4.26074L25.0396 19.4687ZM25.8243 21.2812L15.1699 16.783V21.2812H25.8243Z" fill="#98002E"/>
<path d="M5.30078 19.4687L15.1705 4.26074V14.7162L5.30078 19.4687Z" fill="#E31837"/>
<path d="M4.51562 21.2815H15.17V16.7832L4.51562 21.2815Z" fill="#E31837"/>
<path d="M26.6865 18.1641C27.0734 18.1641 27.3939 18.4735 27.3939 18.8604C27.3939 19.2472 27.0844 19.5677 26.6976 19.5677C26.3107 19.5677 25.9902 19.2582 25.9902 18.8714C25.9902 18.4735 26.2997 18.1641 26.6865 18.1641ZM26.6865 19.4572C27.0181 19.4572 27.2834 19.1919 27.2834 18.8604C27.2834 18.5288 27.0181 18.2635 26.6865 18.2635C26.355 18.2635 26.0897 18.5288 26.0897 18.8604C26.0897 19.1919 26.355 19.4572 26.6865 19.4572ZM26.5318 19.2693H26.4323V18.4625H26.7418C26.9297 18.4625 26.996 18.5398 26.996 18.6835C27.007 18.8051 26.9076 18.9046 26.7971 18.9156L27.0402 19.2693H26.9297L26.6865 18.9156H26.5428L26.5318 19.2693ZM26.5318 18.8161H26.6644C26.7749 18.8161 26.8965 18.8051 26.8965 18.6725C26.8965 18.573 26.797 18.5398 26.7197 18.5398H26.5428V18.8161H26.5318Z" fill="#98002E"/>
</svg>
