<svg width="46" height="46" viewBox="0 0 46 46" fill="none" xmlns="http://www.w3.org/2000/svg">
<circle cx="22.75" cy="22.9404" r="22" fill="white" stroke="#EDEDED"/>
<path d="M39.4218 13.3794H40.2449C40.6721 13.6098 41.0164 13.897 41.2024 14.234V16.1066C40.8728 16.6126 40.7605 17.1604 40.4732 17.6757C40.0865 18.4365 39.5065 19.1707 38.63 19.7544C37.6043 20.4365 36.3687 20.9761 35.1276 21.4903C32.0727 22.7259 28.9054 23.8457 25.7198 24.9424C19.284 27.1207 12.7378 29.1773 6.00376 30.9677C5.45502 31.058 4.9118 31.1541 4.35938 31.2317C4.41093 30.8252 5.0941 30.6585 5.55445 30.4523C16.6987 26.2683 26.681 20.9738 35.9139 15.2647C37.0371 14.6058 38.072 13.86 39.4218 13.3794Z" fill="#548F46"/>
<path d="M35.9508 22.0103C36.3559 21.8887 36.9286 22.0091 37.0206 22.3056C37.1661 22.7468 36.8825 23.1857 36.6211 23.5864C35.577 25.0212 33.9363 26.3159 31.7781 27.1404C30.6273 27.5573 29.3585 27.8213 28.1156 28.105C22.026 29.409 15.7634 30.3609 9.49334 31.2514C9.55595 31.2769 9.68485 31.3279 9.7493 31.3545C9.64066 31.3707 9.42705 31.4031 9.3184 31.4193C9.23186 31.1993 8.43269 31.2827 8.82675 31.49C8.10492 31.5641 7.32784 31.5815 6.70912 31.8548C6.61153 31.7725 6.51762 31.6903 6.42555 31.6069C5.71292 31.629 5.00582 31.673 4.29688 31.7123C4.31345 31.5514 4.3337 31.3916 4.35948 31.2317C4.9119 31.1542 5.45512 31.058 6.00386 30.9677C6.45316 30.9156 6.90063 30.8461 7.33337 30.7488C9.6425 30.2405 11.8927 29.6325 14.1245 29.0002C20.4387 27.189 26.6369 25.2146 32.6989 23.0873C33.7779 22.7236 34.8054 22.2882 35.9508 22.0103Z" fill="#F1D212"/>
<path d="M30.71 28.0989C31.2108 28.0433 31.8664 27.8569 32.2789 28.1383C32.7742 28.5482 32.2586 29.0543 31.9272 29.4306C30.7339 30.5528 29.1834 31.5939 27.1579 32.1103C26.1967 32.4033 25.1121 32.3616 24.0791 32.4311C18.6855 32.628 13.2884 32.386 7.91695 32.0837C7.50448 32.0374 7.02755 32.0524 6.70898 31.8544C7.3277 31.5811 8.10477 31.5638 8.82661 31.4896C8.94998 31.4723 9.19489 31.4364 9.31827 31.419C9.42691 31.4028 9.64051 31.3704 9.74916 31.3541C13.4762 30.9627 17.1738 30.4613 20.8345 29.8684C24.1582 29.3531 27.4065 28.664 30.71 28.0989Z" fill="#C12237"/>
</svg>
