<svg width="46" height="46" viewBox="0 0 46 46" fill="none" xmlns="http://www.w3.org/2000/svg">
<circle cx="22.75" cy="22.9404" r="22.5" fill="#F9BA00"/>
<path d="M28.3452 19.2911C28.2279 19.2911 28.1291 19.2941 28.0735 19.3003C28.0086 19.4177 27.9129 19.5752 27.7708 19.7944C29.9819 19.7944 31.9892 19.9766 34.2095 20.375L33.5826 20.9802C31.5784 20.6251 29.914 20.4831 27.7925 20.4831C27.4837 20.4831 27.4188 20.4831 27.3447 20.4862C27.2706 20.5973 27.1038 20.8135 26.9371 21.0142C27.1255 21.0019 27.4899 20.9957 27.9932 20.9957C29.738 20.9957 31.3684 21.1254 33.1379 21.4095L32.511 22.0178C31.1646 21.8079 29.5187 21.6874 28.0426 21.6874C27.5176 21.6874 26.9216 21.7059 26.3874 21.7368C26.267 21.8758 25.952 22.2155 25.8563 22.3204C26.5634 22.2464 27.3416 22.2124 28.268 22.2124C29.5867 22.2124 30.8466 22.2989 32.0386 22.4749L31.4117 23.077C30.5625 22.9721 29.531 22.9103 28.6201 22.9103C26.2701 22.9103 24.4172 23.4198 22.5026 24.5902C24.3276 26.548 27.3169 27.7863 30.2135 27.7863H30.4852L29.4724 28.7654C25.2942 27.9809 20.8968 26.1435 17.1819 23.6267C13.609 21.2149 12.3583 20.5016 9.56983 19.2695L9.5513 18.553L11.4381 19.3621L12.0804 18.8526L18.2411 21.6751L17.8396 21.9962L14.6775 20.6221L14.3656 20.866L16.0085 21.7832C17.395 22.5552 18.4511 22.901 19.4269 22.901C21.5608 22.901 23.4754 21.3879 24.7106 18.7291C25.6401 18.6086 26.6314 18.553 27.8233 18.553C30.2691 18.553 32.6438 18.7877 35.3335 19.2911L34.6788 19.9241C33.0051 19.5752 30.161 19.2911 28.3452 19.2911ZM22.3575 36.8776C14.3429 36.8776 7.84166 30.3763 7.84166 22.3618C7.84166 14.3472 14.3429 7.84591 22.3575 7.84591C30.372 7.84591 36.8733 14.3472 36.8733 22.3618C36.8733 30.3763 30.372 36.8776 22.3575 36.8776ZM22.3575 6.91943C13.8179 6.91943 6.91504 13.8221 6.91504 22.3618C6.91504 30.9014 13.8179 37.8042 22.3575 37.8042C30.8971 37.8042 37.7999 30.9014 37.7999 22.3618C37.7999 13.8221 30.8971 6.91943 22.3575 6.91943Z" fill="#0A1D3D"/>
</svg>
