<svg width="65" height="64" viewBox="0 0 65 64" fill="none" xmlns="http://www.w3.org/2000/svg">
<rect x="0.487457" width="64" height="64" rx="32" fill="#C7B9DA"/>
<rect x="0.487457" width="64" height="64" rx="32" fill="#00A79D"/>
<path d="M24.2701 22.3711C21.534 23.1939 18.6143 25.2019 17.0244 26.4041C16.2464 26.9923 15.8208 27.9202 15.8208 28.8955V45.0112C15.8208 46.4336 17.534 47.2584 18.7146 46.4651C20.7304 45.1104 23.4686 43.5722 25.8208 43.3089C31.3513 42.6899 33.6236 49.2448 39.1541 48.6258C42.2663 48.2774 46.0542 45.6972 47.9506 44.2634C48.7285 43.6751 49.1541 42.7473 49.1541 41.772V25.6563C49.1541 24.2338 47.441 23.409 46.2604 24.2024C44.5183 25.373 42.2368 26.6808 40.1312 27.1843" stroke="white" stroke-width="1.5"/>
<path d="M40.8208 23.332C40.8208 27.7503 36.6541 35.332 32.4875 35.332C28.3208 35.332 24.1541 27.7503 24.1541 23.332C24.1541 18.9138 27.8851 15.332 32.4875 15.332C37.0899 15.332 40.8208 18.9138 40.8208 23.332Z" stroke="white" stroke-width="1.5"/>
<path d="M34.9875 22.832C34.9875 24.2127 33.8682 25.332 32.4875 25.332C31.1068 25.332 29.9875 24.2127 29.9875 22.832C29.9875 21.4513 31.1068 20.332 32.4875 20.332C33.8682 20.332 34.9875 21.4513 34.9875 22.832Z" stroke="white" stroke-width="1.5"/>
</svg>
