<svg width="46" height="46" viewBox="0 0 46 46" fill="none" xmlns="http://www.w3.org/2000/svg">
<circle cx="22.75" cy="22.9404" r="22" fill="white" stroke="#EDEDED"/>
<mask id="mask0_5615_66744" style="mask-type:alpha" maskUnits="userSpaceOnUse" x="0" y="0" width="46" height="46">
<circle cx="22.75" cy="22.9404" r="22.5" fill="white"/>
</mask>
<g mask="url(#mask0_5615_66744)">
<path d="M31.6039 23.8389C31.6039 24.0028 29.2494 24.1586 25.8904 24.29C25.2981 23.9557 24.8454 23.6214 24.5176 23.3342C28.5922 23.4786 31.6039 23.6523 31.6039 23.8389Z" fill="#77838F"/>
<path d="M29.1906 18.2301C29.1906 18.3664 27.2141 18.4979 24.3955 18.6082C24.8012 18.3729 25.2182 18.1393 25.6515 17.9023C27.7853 18.003 29.1906 18.1133 29.1906 18.2301Z" fill="#77838F"/>
<path d="M8.16741 30.2964C6.86114 30.311 5.71551 30.3175 4.81978 30.3175C3.53461 30.3175 2.49121 29.9264 2.49121 29.438C2.49121 28.956 3.53461 28.5649 4.81978 28.5649C5.96379 28.5649 7.5086 28.5763 9.27896 28.599C8.59418 29.5775 8.2664 30.1649 8.23719 30.199C8.21772 30.2266 8.19337 30.2607 8.16741 30.2964Z" fill="#77838F"/>
<path d="M8.86969 31.4716C9.30457 31.9844 9.71512 32.4177 10.2685 32.8899C10.2685 32.8899 10.4762 33.1836 11.109 32.9304C11.7516 32.674 12.2968 32.3187 12.9135 31.5041C14.7082 31.5333 16.6165 31.5738 18.4907 31.616C18.6464 31.8367 18.958 32.2959 19.3458 32.8639C14.1175 32.9986 8.44292 33.0781 5.53666 33.0781C4.32451 33.0781 3.34277 32.7065 3.34277 32.2505C3.34277 31.7962 4.32288 31.4246 5.53666 31.4246C6.42103 31.4246 7.56017 31.431 8.86806 31.4473C8.86482 31.4586 8.86969 31.4716 8.86969 31.4716Z" fill="#77838F"/>
<path d="M6.84829 35.7826C5.77406 35.7826 4.9043 35.4548 4.9043 35.0524C4.9043 34.6483 5.77406 34.3206 6.84829 34.3206C9.69288 34.3206 15.5184 34.4066 20.5098 34.5461C20.75 34.8869 20.9901 35.226 21.2205 35.536C16.0798 35.6836 9.82757 35.7826 6.84829 35.7826Z" fill="#77838F"/>
<path d="M23.4245 38.1219C19.2331 38.3036 12.0283 38.4269 9.03282 38.4269C8.18902 38.4269 7.50586 38.1673 7.50586 37.8525C7.50586 37.5361 8.19064 37.2781 9.03282 37.2781C11.8985 37.2781 18.6213 37.3868 22.8663 37.5572C23.0578 37.76 23.246 37.9499 23.4245 38.1219Z" fill="#77838F"/>
<path d="M12.4886 39.676C14.9599 39.676 22.4876 39.861 22.4876 40.0833C22.4876 40.3121 14.9599 40.4906 12.4886 40.4906C12.005 40.4906 11.6172 40.3121 11.6172 40.0833C11.6172 39.861 12.0066 39.676 12.4886 39.676Z" fill="#77838F"/>
<path d="M12.5162 24.6351C9.40715 24.687 6.61449 24.7178 4.81978 24.7178C3.53461 24.7178 2.49121 24.3235 2.49121 23.84C2.49121 23.3548 3.53461 22.9604 4.81978 22.9604C6.90658 22.9604 10.3321 23.001 14.0465 23.0692C13.4931 23.6079 12.9836 24.132 12.5162 24.6351Z" fill="#77838F"/>
<path d="M27.7808 20.7122C29.6047 20.8095 30.7504 20.915 30.7504 21.027C30.7504 21.1503 29.363 21.2671 27.2129 21.3742C27.6737 21.0302 27.7727 20.7316 27.7808 20.7122Z" fill="#77838F"/>
<path d="M5.53666 21.853C4.32451 21.853 3.34277 21.4814 3.34277 21.027C3.34277 20.5727 4.32288 20.1995 5.53666 20.1995C8.01939 20.1995 12.5273 20.2595 17.0481 20.3601C16.4948 20.821 15.9674 21.2786 15.4708 21.728C11.5033 21.8059 7.73217 21.853 5.53666 21.853Z" fill="#77838F"/>
<path d="M19.0474 18.7739C14.4243 18.8891 9.41669 18.9605 6.84634 18.9605C5.77211 18.9605 4.90234 18.6343 4.90234 18.2303C4.90234 17.8262 5.77211 17.4968 6.84634 17.4968C9.68282 17.4968 15.4937 17.5861 20.4786 17.7256C20.2304 17.9025 19.9772 18.0826 19.7257 18.2692C19.4969 18.4364 19.2697 18.6068 19.0474 18.7739Z" fill="#77838F"/>
<path d="M9.03282 16.0002C8.18902 16.0002 7.50586 15.7438 7.50586 15.4258C7.50586 15.1077 8.19064 14.8513 9.03282 14.8513C12.2101 14.8513 20.1418 14.9876 24.1661 15.1872C23.9097 15.3544 23.655 15.5264 23.3937 15.6984C19.1974 15.8785 12.0186 16.0002 9.03282 16.0002Z" fill="#77838F"/>
<path d="M4.57942 27.5332C3.2699 27.5332 2.20703 27.1356 2.20703 26.6374C2.20703 26.1458 3.2699 25.7466 4.57942 25.7466C6.22483 25.7466 8.67998 25.7709 11.4629 25.8115C10.9388 26.4184 10.486 26.9815 10.0966 27.4861C7.88486 27.5153 5.94897 27.5332 4.57942 27.5332Z" fill="#77838F"/>
<path d="M11.6172 13.1947C11.6172 12.9675 12.005 12.7874 12.4886 12.7874C14.9599 12.7874 22.4876 12.9675 22.4876 13.1947C22.4876 13.4186 14.9599 13.6036 12.4886 13.6036C12.0066 13.6036 11.6172 13.4186 11.6172 13.1947Z" fill="#77838F"/>
<path d="M31.8518 25.9786C31.8696 26.4216 31.8664 26.8662 31.8453 27.2978C27.4624 27.4682 23.3115 27.7311 23.3115 28.0232C23.3115 28.3104 27.3715 28.57 31.7009 28.7404C31.623 29.2337 31.5256 29.7189 31.4039 30.1927C27.1378 30.3663 23.1785 30.6195 23.1785 30.9051C23.1785 31.1809 26.8733 31.4276 30.9707 31.6012C30.7808 32.1156 30.5682 32.6186 30.3281 33.1006C26.8133 33.2661 23.907 33.49 23.907 33.7334C23.907 33.9606 26.4466 34.1716 29.6449 34.3322C29.468 34.6211 29.2782 34.9067 29.0835 35.1744C28.8757 35.4665 28.6502 35.7537 28.4084 36.0377C26.4076 36.1902 25.0364 36.3573 25.0364 36.5423C25.0364 36.6981 26.0198 36.8458 27.5338 36.9772C26.7062 37.7869 25.7293 38.5431 24.5788 39.2003C24.5788 39.2003 23.219 38.0466 22.1042 36.6981C21.1046 35.4957 18.9903 32.3282 18.4872 31.6174C17.9891 30.9067 17.6629 30.699 17.0803 30.9067C16.2982 31.1793 15.3879 31.3189 15.1071 31.3189C14.828 31.3189 14.6739 31.2101 15.1445 31.0252C15.6102 30.8402 17.4568 29.9769 18.3623 28.1984C19.3846 26.196 18.4856 23.4277 18.4856 23.4277C18.1448 24.906 17.3676 25.4593 17.3676 25.4593C17.6175 24.0865 17.3432 22.8403 16.6568 21.9656L16.2739 23.7052C16.2739 23.7052 16.0337 23.6938 15.4414 24.1855C14.8475 24.6788 14.6852 25.3976 14.6852 25.3976C15.1526 25.5826 15.7124 25.1218 15.7124 25.1218C14.9968 27.7684 13.9713 29.9233 13.2199 31.0641C12.4719 32.2032 11.8553 32.6333 11.1056 32.9318C10.4727 33.1833 10.265 32.8913 10.265 32.8913C9.71167 32.4191 9.29951 31.9858 8.86625 31.473C8.86625 31.473 8.83217 31.413 8.949 31.4162C9.25894 31.4195 9.80741 30.897 9.92911 30.6828C10.0654 30.4361 10.0508 30.2463 9.97942 30.2333C9.91451 30.2203 9.79605 30.4166 9.20214 30.7899C8.60824 31.1598 8.33724 30.9002 8.1409 30.6957C7.98836 30.5319 8.13603 30.329 8.23501 30.2008C8.32426 30.0889 11.4496 24.325 19.7253 18.2707C30.5698 10.3341 37.4923 8.19378 37.8882 8.038C38.1511 7.93577 38.5795 7.80108 38.6752 7.90007C38.784 8.01041 38.8359 8.09966 38.8213 8.22948C38.8083 8.35767 38.7369 8.4242 38.2371 8.64164C34.0749 10.4542 29.2165 13.4757 26.4547 15.2347C23.06 16.8704 19.8195 19.2038 19.6994 19.259C19.4381 19.4196 19.6312 19.6517 19.7903 19.5559C25.5233 15.7864 32.2493 13.2209 39.6748 11.1163C40.0302 11.014 40.2249 11.014 40.2833 11.0952C40.3482 11.1795 40.3774 11.2769 40.3872 11.3856C40.3969 11.5203 40.2849 11.5917 39.9799 11.7102C32.0011 14.6391 26.1188 17.3588 22.3346 19.8756C22.3346 19.8756 21.942 20.1093 21.9387 20.3802C21.9371 20.4825 22.1497 20.4938 22.1497 20.4938C24.045 20.5279 26.5748 20.6399 27.7788 20.708C27.7788 20.708 27.6068 21.3117 26.4531 21.7969C25.5622 22.1701 24.7411 22.11 23.9233 22.1182C23.7399 22.1133 23.589 22.295 23.7334 22.4881C23.8081 22.5839 25.5443 25.3457 31.8518 25.9786Z" fill="#63003C"/>
</g>
</svg>
