<svg width="46" height="46" viewBox="0 0 46 46" fill="none" xmlns="http://www.w3.org/2000/svg">
<circle cx="22.75" cy="22.9404" r="22" fill="white" stroke="#EDEDED"/>
<path d="M18.8208 23.2673C20.0674 18.584 18.6456 13.6763 15.245 11.0756C10.6126 14.0081 7.94144 19.522 8.90628 25.2666C9.22419 27.1657 9.91284 28.9109 10.8823 30.4402C14.5044 29.4318 17.6891 27.5225 18.8208 23.2673ZM25.0733 36.7826C32.7189 35.499 37.874 28.2603 36.5894 20.6175C35.5207 14.2556 30.3341 9.61951 24.2178 8.97905C22.9833 8.84929 21.7079 8.88451 20.4214 9.09954C18.8968 9.35535 17.475 9.85122 16.1802 10.538C22.9184 12.8236 26.5414 16.2974 26.7926 19.8575C26.9159 22.055 25.8945 23.6446 24.5524 24.9403L34.0804 24.2748C34.3501 24.2563 34.4345 24.5705 34.1082 24.6641L11.3819 31.1798C13.6953 34.3664 17.2878 36.4861 21.2779 36.9031C22.5124 37.0329 23.7878 36.9995 25.0733 36.7826ZM24.3059 8.14211C31.7902 8.92159 37.6275 15.2464 37.6302 22.9365C37.633 31.1539 30.9727 37.8189 22.7543 37.8216C14.536 37.8244 7.87192 31.165 7.86914 22.9467C7.86636 14.7283 14.5258 8.06333 22.7441 8.06055C23.2706 8.06055 23.7924 8.08928 24.3059 8.14211Z" fill="white"/>
<path d="M8.90609 25.2684C9.224 27.1666 9.91265 28.9118 10.8821 30.4411C14.5043 29.4327 17.6889 27.5234 18.8215 23.2683C20.0672 18.5849 18.6454 13.6772 15.2439 11.0765C10.6124 14.009 7.94124 19.5238 8.90609 25.2684ZM36.5892 20.6175C37.8738 28.2612 32.7187 35.4999 25.0731 36.7836C23.7876 37.0004 22.5122 37.0338 21.2767 36.904C17.2885 36.487 13.6942 34.3673 11.3817 31.1808L34.108 24.665C34.4343 24.5705 34.3499 24.2572 34.0802 24.2757L24.5522 24.9412C25.8943 23.6455 26.9157 22.0559 26.7924 19.8584C26.5412 16.2984 22.9182 12.8245 16.18 10.5389C17.4748 9.85213 18.8966 9.35626 20.4212 9.10045C21.7077 8.88542 22.9831 8.8502 24.2176 8.97996C30.3339 9.62041 35.5205 14.2565 36.5892 20.6175Z" fill="#C70A0C"/>
</svg>
