<svg width="46" height="46" viewBox="0 0 46 46" fill="none" xmlns="http://www.w3.org/2000/svg">
<circle cx="22.75" cy="22.9404" r="22" fill="#EB143A" stroke="#EDEDED"/>
<path d="M18.9684 15.8568C18.9684 15.8568 19.7334 14.4482 20.3376 13.9871C20.5238 13.8708 20.6813 13.714 20.7983 13.5283C20.9153 13.3425 20.9888 13.1327 21.0132 12.9146C21.0239 12.7797 21.0018 12.6443 20.9489 12.5198C20.896 12.3954 20.8138 12.2855 20.7094 12.1996C20.7094 12.1996 19.7799 11.4453 19.0256 12.7358C19.0256 12.7358 15.4506 19.4675 14.2351 26.2599C14.2351 26.2599 14.1422 26.4779 14.1171 25.8631C14.1171 25.8631 13.5952 20.1646 13.5737 19.9572C13.5523 19.7499 13.5737 19.2422 13.0911 19.1993C13.0911 19.1993 12.5334 19.0957 12.201 19.9429L10.6208 23.8325C10.6208 23.8325 10.3599 24.3187 10.7817 24.501C10.7817 24.501 11.25 24.7691 11.5575 24.1113L12.2725 22.5491C12.4155 22.2273 12.5227 22.2738 12.5227 22.2738C12.6085 22.2917 12.6443 22.6313 12.6443 22.6313C12.6443 22.6313 13.3092 30.271 13.3163 30.3425C13.3235 30.414 13.3807 31.0181 13.8955 31.0181C14.253 31.0181 14.3853 30.5963 14.4603 30.2531C14.5354 29.9099 15.2289 26.2635 16.3872 22.3382C17.1451 19.7606 18.1211 17.1902 18.9684 15.8568ZM17.9173 22.5276C17.697 22.5951 17.5011 22.7254 17.3538 22.9026C17.2064 23.0797 17.114 23.2961 17.0879 23.525L16.6375 26.8605C16.566 27.5218 17.424 27.0428 17.424 27.0428C17.5337 26.9713 17.6279 26.8784 17.701 26.7697C17.7741 26.661 17.8246 26.5386 17.8494 26.41L17.9852 25.5735L18.3999 23.3177C18.5358 22.3667 17.928 22.5276 17.928 22.5276H17.9173ZM19.383 22.8208C19.383 22.8208 19.1435 24.5582 19.1042 24.9407C19.1042 24.9407 18.7825 26.4064 19.5689 26.1419C19.7843 26.0569 19.9692 25.9092 20.0999 25.7181C20.2305 25.5269 20.3008 25.301 20.3018 25.0694L20.4305 23.8218C20.4464 23.5512 20.5263 23.2882 20.6637 23.0545C20.801 22.8208 20.9919 22.6231 21.2206 22.4776C21.2206 22.4776 22.0071 22.1201 21.7711 21.6339C21.7711 21.6339 21.621 21.2442 21.1526 21.4551C20.9781 21.5393 20.7929 21.5994 20.6021 21.6339L20.0587 21.7018C20.0587 21.7018 19.476 21.7411 19.3938 22.8351L19.383 22.8208ZM18.7753 20.8331C19.2579 20.447 19.1149 20.1181 19.1149 20.1181C18.9362 19.5997 18.2784 20.1503 18.2784 20.1503C17.7243 20.5435 17.9209 20.9332 17.9209 20.9332C18.1711 21.3586 18.786 20.8331 18.786 20.8331H18.7753ZM26.8333 23.2569C27.0259 23.2042 27.1987 23.0956 27.3298 22.9448C27.4608 22.794 27.5443 22.6078 27.5697 22.4096C27.5697 22.4096 27.9451 19.7535 27.9594 19.6641C27.9737 19.5747 28.1381 18.874 27.6448 18.9813C27.4689 19.0179 27.3076 19.105 27.1806 19.2321C27.0535 19.3591 26.9664 19.5204 26.9298 19.6963L26.4758 22.3131L26.3757 22.8351C26.3757 22.8351 26.2541 23.4071 26.8333 23.2569ZM28.3347 17.6943C28.3347 17.6943 28.8603 17.2581 28.6207 16.94C28.6207 16.94 28.3955 16.6075 27.7735 17.0508C27.7735 17.0508 27.2158 17.5084 27.559 17.8266C27.5483 17.8301 27.8807 18.1304 28.3312 17.6943H28.3347ZM34.9055 20.9403C34.784 20.7223 34.4622 20.5828 33.8938 20.8224C33.3254 21.0619 33.0394 21.2049 33.0179 21.2085C32.9965 21.212 32.2779 21.591 32.353 20.6114L32.5818 18.2984C32.5818 18.2984 32.6712 17.4583 32.0134 17.4583C32.0134 17.4583 31.6559 17.4226 31.1018 17.9124C30.9606 18.0464 30.7957 18.1531 30.6156 18.227C30.4617 18.2657 30.2997 18.257 30.1508 18.2019C29.9768 18.1441 29.7887 18.1441 29.6146 18.2019C29.4079 18.2795 29.2312 18.4207 29.1098 18.605C28.9884 18.7894 28.9286 19.0074 28.9389 19.2279L28.6887 21.28C28.6247 21.5926 28.6018 21.9123 28.6207 22.2309C28.6207 22.2309 28.6887 22.5526 29.2678 22.3596C29.2678 22.3596 29.7611 22.2095 29.8183 21.3693C29.8183 21.3693 29.9578 19.7284 30.1758 19.4103C30.3383 19.1098 30.5714 18.8534 30.8551 18.6631C30.8551 18.6631 31.4199 18.3914 31.4128 18.8526L31.209 20.7366C31.209 20.7366 31.0088 21.6589 31.4271 21.8091C31.4271 21.8091 31.4735 21.8091 31.3663 21.8841C31.3663 21.8841 28.66 23.0353 25.1709 24.98C25.4104 23.0031 25.818 20.2504 25.818 20.2504C25.8787 19.8035 25.3318 19.8035 25.3318 19.8035C24.7955 19.8035 24.7205 20.4112 24.674 20.6901C24.6275 20.9689 24.2271 23.1926 24.2271 23.1926C24.0448 24.2043 23.4406 24.1542 23.4406 24.1542C22.8472 24.2222 23.2047 22.6206 23.2047 22.6206C23.362 22.045 23.4156 21.5481 23.8696 21.1727C24.3236 20.7973 24.3558 20.3111 24.0198 20.2968C23.4621 20.2683 22.8936 20.8688 22.8936 20.8688C21.9034 21.8448 21.907 24.2114 21.907 24.2114C21.8831 24.4039 21.9165 24.5991 22.003 24.7727C22.0895 24.9462 22.2252 25.0905 22.3932 25.1874C23.0224 25.4734 23.8875 24.9693 23.8875 24.9693C24.0913 24.8299 24.0627 25.0265 24.0627 25.0265L24.0198 25.6271C21.2464 27.1961 18.6148 29.0035 16.1549 31.0289C16.1549 31.0289 15.0288 31.8547 15.4399 32.4052C15.851 32.9558 16.5124 32.4553 16.759 32.2193C16.759 32.2193 19.2615 29.6418 23.9089 26.7568L23.7624 28.6944C23.698 29.5703 23.4049 32.2694 23.4049 32.2694C23.2762 33.3419 23.4478 33.5421 23.505 33.6171C23.6181 33.7607 23.7802 33.8575 23.9602 33.8892C24.1402 33.9208 24.3256 33.8851 24.4809 33.7887C25.0565 33.4312 24.7705 32.5375 24.6775 32.1192C24.6148 31.7545 24.5872 31.3846 24.5953 31.0146C24.6347 30.4569 24.9528 26.6924 24.9528 26.6924C24.9528 26.5459 24.9779 26.335 25.0029 26.0847C26.9674 24.9228 29.0073 23.8933 31.1089 23.0031C31.1089 23.0031 32.0956 22.6134 32.9357 22.3489C32.9357 22.3489 33.2146 22.2381 33.5685 22.1308C34.044 21.995 34.641 21.7733 34.8376 21.5195C34.9038 21.4398 34.9452 21.3425 34.9567 21.2396C34.9681 21.1366 34.9491 21.0326 34.9019 20.9403H34.9055Z" fill="white"/>
</svg>
