<svg width="25" height="25" viewBox="0 0 25 25" fill="none" xmlns="http://www.w3.org/2000/svg">
<path fill-rule="evenodd" clip-rule="evenodd" d="M11.4424 3.32471C10.1997 3.32471 9.19238 4.33207 9.19238 5.57471V6.57471H7.69238V5.57471C7.69238 3.50364 9.37132 1.82471 11.4424 1.82471H13.4424C15.5135 1.82471 17.1924 3.50364 17.1924 5.57471V6.57471H15.6924V5.57471C15.6924 4.33207 14.685 3.32471 13.4424 3.32471H11.4424Z" fill="#00A79D"/>
<path opacity="0.4" d="M2.44238 10.5747C2.44238 8.36557 4.23324 6.57471 6.44238 6.57471H18.4424C20.6515 6.57471 22.4424 8.36557 22.4424 10.5747V18.5747C22.4424 20.7838 20.6515 22.5747 18.4424 22.5747H6.44238C4.23324 22.5747 2.44238 20.7838 2.44238 18.5747V10.5747Z" fill="#00A79D"/>
<path fill-rule="evenodd" clip-rule="evenodd" d="M5.69238 10.5747C5.69238 10.1605 6.02817 9.82471 6.44238 9.82471H18.4424C18.8566 9.82471 19.1924 10.1605 19.1924 10.5747C19.1924 10.9889 18.8566 11.3247 18.4424 11.3247H6.44238C6.02817 11.3247 5.69238 10.9889 5.69238 10.5747Z" fill="#00A79D"/>
<path fill-rule="evenodd" clip-rule="evenodd" d="M5.69238 14.5747C5.69238 14.1605 6.02817 13.8247 6.44238 13.8247H18.4424C18.8566 13.8247 19.1924 14.1605 19.1924 14.5747C19.1924 14.9889 18.8566 15.3247 18.4424 15.3247H6.44238C6.02817 15.3247 5.69238 14.9889 5.69238 14.5747Z" fill="#00A79D"/>
<path fill-rule="evenodd" clip-rule="evenodd" d="M5.69238 18.5747C5.69238 18.1605 6.02817 17.8247 6.44238 17.8247H18.4424C18.8566 17.8247 19.1924 18.1605 19.1924 18.5747C19.1924 18.9889 18.8566 19.3247 18.4424 19.3247H6.44238C6.02817 19.3247 5.69238 18.9889 5.69238 18.5747Z" fill="#00A79D"/>
</svg>
