<svg width="25" height="25" viewBox="0 0 25 25" fill="none" xmlns="http://www.w3.org/2000/svg">
<path opacity="0.4" d="M3.71066 10.5747L21.6448 10.5747C22.6649 10.5747 23.0655 9.22329 22.2167 8.64529L13.8216 2.92846C13.1289 2.45679 12.2266 2.45679 11.5339 2.92846L3.13875 8.64529C2.28997 9.22329 2.69056 10.5747 3.71066 10.5747Z" fill="#00A79D"/>
<rect x="6.67773" y="10.5747" width="4" height="8" fill="#00A79D"/>
<rect x="14.6777" y="10.5747" width="4" height="8" fill="#00A79D"/>
<path opacity="0.4" d="M20.0593 18.5747C20.438 18.5747 20.7843 18.7887 20.9537 19.1275L21.9537 21.1275C22.2861 21.7924 21.8026 22.5747 21.0593 22.5747L4.29532 22.5747C3.55194 22.5747 3.06845 21.7924 3.4009 21.1275L4.4009 19.1275C4.57029 18.7887 4.91655 18.5747 5.29532 18.5747L20.0593 18.5747Z" fill="#00A79D"/>
</svg>
