<svg width="25" height="25" viewBox="0 0 25 25" fill="none" xmlns="http://www.w3.org/2000/svg">
<path d="M13.417 21.0833C13.417 21.4975 13.0812 21.8333 12.667 21.8333C12.2528 21.8333 11.917 21.4975 11.917 21.0833C11.917 20.669 12.2528 20.3333 12.667 20.3333C13.0812 20.3333 13.417 20.669 13.417 21.0833Z" fill="#00A79D"/>
<path d="M13.417 18.0833C13.417 18.4975 13.0812 18.8333 12.667 18.8333C12.2528 18.8333 11.917 18.4975 11.917 18.0833C11.917 17.669 12.2528 17.3333 12.667 17.3333C13.0812 17.3333 13.417 17.669 13.417 18.0833Z" fill="#00A79D"/>
<path d="M13.642 9.97696C13.3462 10.2669 13.3414 10.7418 13.6314 11.0376C13.9214 11.3334 14.3962 11.3381 14.692 11.0481L13.642 9.97696ZM16.1056 9.33189L16.3396 10.0444L16.1056 9.33189ZM13.1229 5.99443L12.7521 6.64635L13.1229 5.99443ZM21.6674 11.0833L21.0677 11.5337L21.6674 11.0833ZM18.9423 18.1388C18.5471 18.2629 18.3273 18.6839 18.4515 19.0791C18.5756 19.4743 18.9965 19.694 19.3917 19.5699L18.9423 18.1388ZM5.79145 18.796C6.14999 19.0034 6.60879 18.8809 6.8162 18.5223C7.0236 18.1638 6.90108 17.705 6.54254 17.4976L5.79145 18.796ZM3.41699 12.0833C3.41699 8.63147 6.21521 5.83325 9.66699 5.83325V4.33325C5.38679 4.33325 1.91699 7.80304 1.91699 12.0833H3.41699ZM14.692 11.0481C15.1526 10.5966 15.7145 10.2497 16.3396 10.0444L15.8715 8.61933C15.0235 8.89785 14.2634 9.36771 13.642 9.97696L14.692 11.0481ZM16.3396 10.0444C16.7563 9.90759 17.2022 9.83325 17.667 9.83325V8.33325C17.0412 8.33325 16.4374 8.43348 15.8715 8.61933L16.3396 10.0444ZM17.667 3.83325C20.0142 3.83325 21.917 5.73604 21.917 8.08325H23.417C23.417 4.90761 20.8426 2.33325 17.667 2.33325V3.83325ZM13.8041 6.3081C14.4774 4.84584 15.9547 3.83325 17.667 3.83325V2.33325C15.3477 2.33325 13.3507 3.70636 12.4416 5.68075L13.8041 6.3081ZM9.66699 5.83325C10.7904 5.83325 11.8425 6.129 12.7521 6.64635L13.4937 5.34251C12.3641 4.69998 11.0572 4.33325 9.66699 4.33325V5.83325ZM12.7521 6.64635C13.935 7.3192 14.877 8.36713 15.416 9.62692L16.7951 9.03685C16.1263 7.47371 14.9592 6.17611 13.4937 5.34251L12.7521 6.64635ZM21.917 8.08325C21.917 9.04088 21.6012 9.92258 21.0677 10.6328L22.267 11.5337C22.9889 10.5726 23.417 9.37684 23.417 8.08325H21.917ZM17.667 9.83325C19.057 9.83325 20.291 10.4997 21.0677 11.5337L22.267 10.6328C21.2193 9.2379 19.5487 8.33325 17.667 8.33325V9.83325ZM21.0677 11.5337C21.6012 12.2439 21.917 13.1256 21.917 14.0833H23.417C23.417 12.7897 22.9889 11.5939 22.267 10.6328L21.0677 11.5337ZM21.917 14.0833C21.917 15.9851 20.6672 17.597 18.9423 18.1388L19.3917 19.5699C21.7239 18.8374 23.417 16.659 23.417 14.0833H21.917ZM6.54254 17.4976C4.67245 16.4158 3.41699 14.3957 3.41699 12.0833H1.91699C1.91699 14.9528 3.47692 17.4571 5.79145 18.796L6.54254 17.4976Z" fill="#00A79D"/>
<path d="M10.167 19.0833C10.167 19.4975 9.83121 19.8333 9.41699 19.8333C9.00278 19.8333 8.66699 19.4975 8.66699 19.0833C8.66699 18.669 9.00278 18.3333 9.41699 18.3333C9.83121 18.3333 10.167 18.669 10.167 19.0833Z" fill="#00A79D"/>
<path d="M16.667 19.0833C16.667 19.4975 16.3312 19.8333 15.917 19.8333C15.5028 19.8333 15.167 19.4975 15.167 19.0833C15.167 18.669 15.5028 18.3333 15.917 18.3333C16.3312 18.3333 16.667 18.669 16.667 19.0833Z" fill="#00A79D"/>
<path d="M10.167 16.0833C10.167 16.4975 9.83121 16.8333 9.41699 16.8333C9.00278 16.8333 8.66699 16.4975 8.66699 16.0833C8.66699 15.669 9.00278 15.3333 9.41699 15.3333C9.83121 15.3333 10.167 15.669 10.167 16.0833Z" fill="#00A79D"/>
<path d="M16.667 16.0833C16.667 16.4975 16.3312 16.8333 15.917 16.8333C15.5028 16.8333 15.167 16.4975 15.167 16.0833C15.167 15.669 15.5028 15.3333 15.917 15.3333C16.3312 15.3333 16.667 15.669 16.667 16.0833Z" fill="#00A79D"/>
</svg>
