<svg width="25" height="25" viewBox="0 0 25 25" fill="none" xmlns="http://www.w3.org/2000/svg">
<mask id="mask0_8359_18097" style="mask-type:alpha" maskUnits="userSpaceOnUse" x="0" y="0" width="25" height="25">
<rect x="0.177734" y="0.518066" width="24" height="24" fill="#D9D9D9"/>
</mask>
<g mask="url(#mask0_8359_18097)">
<path d="M10.6777 23.1335V21.0182H5.48543C4.9803 21.0182 4.55273 20.8432 4.20273 20.4932C3.85273 20.1432 3.67773 19.7156 3.67773 19.2105V5.82591C3.67773 5.32077 3.85273 4.89321 4.20273 4.54321C4.55273 4.19321 4.9803 4.01821 5.48543 4.01821H10.6777V1.90283H12.1777V23.1335L10.6777 23.1335ZM5.17771 18.5182H10.6777V11.922L5.17771 18.5182Z" fill="#141414"/>
<path opacity="0.5" d="M14.1777 12.518V21.018H18.87C19.3751 21.018 19.8027 20.843 20.1527 20.493C20.5027 20.143 20.6777 19.7155 20.6777 19.2103V5.82577C20.6777 5.32063 20.5027 4.89307 20.1527 4.54307C19.8027 4.19307 19.3751 4.01807 18.87 4.01807H14.1777V5.51804H18.87C18.9469 5.51804 19.0175 5.55009 19.0816 5.61419C19.1457 5.67831 19.1777 5.74883 19.1777 5.82577V18.518L14.1777 12.518Z" fill="#141414"/>
</g>
</svg>
