<svg width="21" height="21" viewBox="0 0 21 21" fill="none" xmlns="http://www.w3.org/2000/svg">
<path fill-rule="evenodd" clip-rule="evenodd" d="M6.02272 6.38657C6.23835 6.11703 6.63166 6.07333 6.9012 6.28896L10.6774 9.30994L14.4537 6.28896C14.7232 6.07333 15.1165 6.11703 15.3321 6.38657C15.5478 6.6561 15.5041 7.04941 15.2345 7.26504L11.0679 10.5984C10.8396 10.781 10.5153 10.781 10.287 10.5984L6.12033 7.26504C5.85079 7.04941 5.80709 6.6561 6.02272 6.38657Z" fill="#141414"/>
<path opacity="0.4" fill-rule="evenodd" clip-rule="evenodd" d="M6.02272 11.3866C6.23835 11.117 6.63166 11.0733 6.9012 11.289L10.6774 14.3099L14.4537 11.289C14.7232 11.0733 15.1165 11.117 15.3321 11.3866C15.5478 11.6561 15.5041 12.0494 15.2345 12.265L11.0679 15.5984C10.8396 15.781 10.5153 15.781 10.287 15.5984L6.12033 12.265C5.85079 12.0494 5.80709 11.6561 6.02272 11.3866Z" fill="#141414"/>
</svg>
