<svg width="25" height="25" viewBox="0 0 25 25" fill="none" xmlns="http://www.w3.org/2000/svg">
<path fill-rule="evenodd" clip-rule="evenodd" d="M6.72584 18.2658C6.4024 18.007 6.34995 17.5351 6.60871 17.2116L10.2339 12.6801L6.60871 8.14867C6.34995 7.82522 6.4024 7.35325 6.72584 7.0945C7.04929 6.83574 7.52126 6.88818 7.78002 7.21163L11.78 12.2116C11.9991 12.4855 11.9991 12.8748 11.78 13.1487L7.78002 18.1487C7.52126 18.4721 7.04929 18.5246 6.72584 18.2658Z" fill="#00A79D"/>
<path opacity="0.4" fill-rule="evenodd" clip-rule="evenodd" d="M12.7258 18.2658C12.4024 18.007 12.35 17.5351 12.6087 17.2116L16.2339 12.6801L12.6087 8.14867C12.35 7.82522 12.4024 7.35325 12.7258 7.0945C13.0493 6.83574 13.5213 6.88818 13.78 7.21163L17.78 12.2116C17.9991 12.4855 17.9991 12.8748 17.78 13.1487L13.78 18.1487C13.5213 18.4721 13.0493 18.5246 12.7258 18.2658Z" fill="#00A79D"/>
</svg>
