<svg width="27" height="25" viewBox="0 0 27 25" fill="none" xmlns="http://www.w3.org/2000/svg">
<g clip-path="url(#clip0_5649_72155)">
<path d="M21.9205 13.4907C20.8677 13.668 19.1907 14.1024 17.2912 14.6188L9.64658 11.4668C9.21816 11.2876 8.75639 11.2022 8.29224 11.2161L6.44518 11.2595C6.29994 11.222 6.26243 11.3673 6.39266 11.4629L12.265 16.0781C9.68331 16.8366 7.3785 17.5426 6.36455 17.8694C6.18384 17.9269 5.99266 17.9438 5.80467 17.9188C5.61669 17.8938 5.43655 17.8276 5.27714 17.7249L3.68486 16.728C3.43486 16.5586 3.13358 16.4819 2.83304 16.5111L1.62244 16.6755L4.49453 20.6708C4.63865 20.8726 4.83679 21.0298 5.06619 21.1241C5.29559 21.2184 5.54694 21.2461 5.79138 21.204C7.74181 20.8743 12.8934 19.9431 16.7823 19.0421C25.4354 16.9703 26.4579 16.4907 26.6229 15.8517C26.8818 14.8496 24.2449 13.0686 21.9205 13.4907Z" fill="#00A79D"/>
</g>
<path d="M2.31055 24.4592H26.3105" stroke="#00A79D"/>
<defs>
<clipPath id="clip0_5649_72155">
<rect width="27" height="24" fill="white" transform="translate(0 0.459229)"/>
</clipPath>
</defs>
</svg>
