<svg width="28" height="24" viewBox="0 0 28 24" fill="none" xmlns="http://www.w3.org/2000/svg">
<rect x="0.255859" y="0.540527" width="27" height="27" rx="13.5" fill="#E5F6F5"/>
<path d="M22.6934 11.8405C22.6864 11.7881 22.652 11.7438 22.6031 11.724C22.5763 11.7135 20.5079 10.9141 17.4315 11.0207C17.7153 9.95738 17.7095 8.94765 17.6506 8.27179C17.5248 6.83208 18.2507 5.63999 18.2583 5.62834C18.2863 5.58347 18.2874 5.52694 18.2618 5.48034C18.2362 5.43431 18.1872 5.40576 18.1342 5.40576C18.0072 5.40576 14.9763 5.43139 11.6732 7.65418C10.7486 8.27588 10.1298 9.12945 9.83207 10.1934C7.42922 8.49145 5.31946 8.08768 5.29326 8.08302C5.2414 8.07312 5.18837 8.09233 5.1546 8.13312C5.1208 8.17391 5.11207 8.22984 5.13127 8.27878C5.13653 8.29277 5.66732 9.68646 5.25596 11.1751C5.02467 12.0106 4.70478 13.6601 5.16157 15.323C5.72732 17.3838 7.27542 18.8025 9.76214 19.5437C8.80777 20.7352 8.21232 21.6569 8.05443 21.9075C7.99616 22.0007 7.98857 22.116 8.03343 22.2163C8.15986 22.4953 8.41449 22.6148 8.60618 22.6655C8.63358 22.6725 8.66154 22.6765 8.68951 22.6765C8.75067 22.6765 8.81187 22.6591 8.8643 22.6259C8.94003 22.5781 8.99247 22.5006 9.00936 22.4132C9.25816 21.0906 10.0838 20.2621 10.554 19.8857C10.7124 19.7587 10.9222 19.719 11.1145 19.7796C13.4497 20.5196 15.4756 20.4485 17.1349 19.5676C19.4988 18.3131 20.4828 15.7174 20.7963 14.6593C21.2892 12.9971 22.6229 11.9862 22.6363 11.9763C22.6788 11.9448 22.7004 11.8929 22.6934 11.8405ZM10.3192 15.3212C10.1828 14.9011 10.0354 14.495 9.87867 14.1029C10.0459 14.4356 10.2126 14.7916 10.3745 15.1703C10.3576 15.2152 10.3407 15.2606 10.3238 15.3067C10.3221 15.3113 10.3209 15.316 10.3192 15.3212ZM14.9873 14.5119C14.2864 15.0066 13.628 15.5403 13.0162 16.0862C13.0302 15.9872 13.0419 15.8887 13.0512 15.7914C13.7247 15.2933 14.3779 14.8691 14.9873 14.5119ZM11.8358 7.89599C14.5288 6.08396 17.0883 5.76467 17.8825 5.70873C17.6652 6.14339 17.2585 7.13213 17.3604 8.29684C17.4082 8.84686 17.4379 9.92127 17.1256 11.0341C16.3 11.0784 15.408 11.1891 14.467 11.3965C13.6315 11.5812 12.8915 11.9343 12.2588 12.4447C12.2034 12.3631 12.1446 12.2827 12.0828 12.2035C13.0419 10.2172 14.1972 8.6173 15.5193 7.4491C15.5269 7.44386 15.5338 7.43802 15.5403 7.43162C15.5974 7.37511 15.5974 7.28246 15.5403 7.22595C15.4942 7.17992 15.4255 7.17118 15.3707 7.19915C15.3701 7.19972 15.3695 7.19972 15.369 7.20031C15.3637 7.20263 15.3585 7.20613 15.3532 7.20963C15.3509 7.21138 15.3486 7.21255 15.3462 7.21428C15.3456 7.21488 15.3456 7.21488 15.3451 7.21545H15.3445C15.3421 7.2172 15.3398 7.21953 15.3375 7.22128C15.3363 7.22245 15.3352 7.22303 15.334 7.2242C15.334 7.2242 15.334 7.2242 15.3334 7.2242C15.3334 7.22478 15.3334 7.22478 15.3328 7.22478C15.112 7.39024 13.2452 8.83462 11.559 11.6272C11.0685 11.1518 10.572 10.7376 10.0855 10.3769C10.3524 9.33279 10.9403 8.49787 11.8358 7.89599ZM11.8783 11.9582C11.8434 11.9186 11.8072 11.8795 11.7705 11.8405C12.0939 11.3004 12.4237 10.8115 12.7471 10.3728C12.4423 10.8698 12.1528 11.3994 11.8783 11.9582ZM5.53682 11.2526C5.87184 10.0395 5.62885 8.91387 5.48612 8.42619C6.28959 8.63128 8.9284 9.45515 11.4203 11.8982C11.4425 11.9203 11.464 11.9425 11.4862 11.9646C11.4879 11.9663 11.4897 11.9687 11.492 11.9704C11.6983 12.1819 11.8812 12.4045 12.0362 12.6346C11.7024 12.9353 11.4017 13.2831 11.136 13.6764C11.1215 13.6898 11.1104 13.7067 11.1028 13.7254C10.8872 14.0511 10.695 14.4071 10.5277 14.7928C9.36362 12.1819 8.01713 10.6869 7.85864 10.5167C7.85864 10.5161 7.85807 10.5161 7.85807 10.5161V10.5156C7.85631 10.5138 7.85514 10.5126 7.85397 10.5115L7.74911 10.6123L7.73281 10.6292L7.63665 10.7049C8.70057 12.0613 9.55064 13.776 10.1642 15.8007C9.75867 17.1874 9.76564 18.3498 9.76624 18.404C9.76681 18.464 9.8041 18.517 9.85947 18.5386C9.9154 18.5602 9.9783 18.5456 10.0185 18.5019C10.917 17.5335 11.8375 16.7184 12.7296 16.0332C12.7121 16.1562 12.6917 16.2803 12.6672 16.4038C11.5992 17.3943 10.6874 18.4098 9.96083 19.2978C4.40066 17.7072 5.01184 13.1474 5.53682 11.2526Z" fill="#464B4F"/>
</svg>
