<svg width="25" height="25" viewBox="0 0 25 25" fill="none" xmlns="http://www.w3.org/2000/svg">
<path opacity="0.4" d="M6.43359 2.8125H18.4336C20.6427 2.8125 22.4336 4.60336 22.4336 6.8125V18.8125C22.4336 21.0216 20.6427 22.8125 18.4336 22.8125H6.43359C4.22446 22.8125 2.43359 21.0216 2.43359 18.8125V6.8125C2.43359 4.60336 4.22445 2.8125 6.43359 2.8125Z" stroke="#00A79D" stroke-width="1.5" stroke-linecap="square" stroke-linejoin="round"/>
<path d="M15.0658 17.0525V18.3005H9.80176V17.0525H11.9138V9.38846C11.6364 9.55913 11.3431 9.67646 11.0338 9.74046C10.7244 9.80446 10.3138 9.83646 9.80176 9.83646V8.62046C10.4098 8.62046 10.9111 8.51913 11.3058 8.31646C11.7111 8.1138 12.0364 7.78313 12.2818 7.32446H13.3218V17.0525H15.0658Z" fill="#00A79D"/>
</svg>
