<svg width="18" height="19" viewBox="0 0 18 19" fill="none" xmlns="http://www.w3.org/2000/svg">
<path d="M7.19992 18.2478L6.36872 14.0934C7.52711 13.2327 8.52708 12.2655 9.07267 11.7207L9.65829 11.1351L14.3998 18.2478L15.5998 17.0478L13.2286 7.56472L17.4726 3.32077C18.1758 2.61758 18.1758 1.47839 17.4726 0.775197C16.7694 0.0720047 15.6302 0.0720047 14.927 0.775197L10.6831 5.01915L1.19999 2.64798L0 3.84796L7.11269 8.58951L6.52711 9.1751C5.98232 9.7199 5.01514 10.7207 4.15355 11.8783L0 11.0479V13.4479L2.71517 14.3526C2.51757 14.8654 2.39997 15.371 2.39997 15.8478C2.87677 15.8478 3.38154 15.7302 3.89433 15.5318L4.79995 18.2478H7.19992Z" fill="#00A79D"/>
</svg>
