<svg width="25" height="25" viewBox="0 0 25 25" fill="none" xmlns="http://www.w3.org/2000/svg">
<path d="M5 18.1663C5 18.4315 5.10536 18.6858 5.29289 18.8734C5.48043 19.0609 5.73478 19.1663 6 19.1663H8V22.1663C8 22.4315 8.10536 22.6858 8.29289 22.8734C8.48043 23.0609 8.73478 23.1663 9 23.1663H15C15.2652 23.1663 15.5196 23.0609 15.7071 22.8734C15.8946 22.6858 16 22.4315 16 22.1663V19.1663H18C18.2652 19.1663 18.5196 19.0609 18.7071 18.8734C18.8946 18.6858 19 18.4315 19 18.1663V11.1663C19.5523 11.1663 20 10.7185 20 10.1663C20 9.61398 19.5523 9.16626 19 9.16626H16V4.16626C16 3.61398 15.5523 3.16626 15 3.16626C14.4477 3.16626 14 3.61398 14 4.16626V9.16626H10V4.16626C10 3.61398 9.55228 3.16626 9 3.16626C8.44772 3.16626 8 3.61398 8 4.16626V9.16626H5C4.44772 9.16626 4 9.61398 4 10.1663C4 10.7185 4.44772 11.1663 5 11.1663V18.1663ZM14 21.1663H10V19.1663H14V21.1663ZM17 11.1663V17.1663H7V11.1663H17Z" fill="#00A79D"/>
</svg>
