<svg width="25" height="25" viewBox="0 0 25 25" fill="none" xmlns="http://www.w3.org/2000/svg">
<path fill-rule="evenodd" clip-rule="evenodd" d="M2.93555 2.06689C2.93555 1.65268 2.59976 1.31689 2.18555 1.31689C1.77133 1.31689 1.43555 1.65268 1.43555 2.06689V18.0669C1.43555 20.6902 3.56219 22.8169 6.18555 22.8169H22.1855C22.5998 22.8169 22.9355 22.4811 22.9355 22.0669C22.9355 21.6527 22.5998 21.3169 22.1855 21.3169H6.18555C4.39062 21.3169 2.93555 19.8618 2.93555 18.0669V2.06689ZM15.6856 8.31689C15.2714 8.31689 14.9356 8.65268 14.9356 9.06689C14.9356 9.48111 15.2714 9.81689 15.6856 9.81689H16.6249L14.3228 13.3286C14.2219 13.4824 13.9951 13.4783 13.8998 13.3209L11.9916 10.1686C11.2921 9.01289 9.60245 9.05201 8.95712 10.2388L6.52667 14.7086C6.32881 15.0725 6.4634 15.5279 6.8273 15.7258C7.19119 15.9237 7.64659 15.7891 7.84446 15.4252L10.2749 10.9554C10.3671 10.7858 10.6085 10.7802 10.7084 10.9453L12.6166 14.0977C13.2834 15.1992 14.8713 15.2278 15.5772 14.1509L18.0234 10.4196L18.5147 11.4023C18.7 11.7728 19.1505 11.923 19.521 11.7377C19.8915 11.5525 20.0416 11.102 19.8564 10.7315L19.1328 9.28427C18.8363 8.6914 18.2304 8.31689 17.5675 8.31689H15.6856Z" fill="#00A79D"/>
</svg>
