<svg width="25" height="25" viewBox="0 0 25 25" fill="none" xmlns="http://www.w3.org/2000/svg">
<path d="M17.1777 7.9436L7.17773 7.9436" stroke="white" stroke-width="1.5" stroke-linecap="round" stroke-linejoin="round"/>
<path d="M17.1777 11.9436L7.17773 11.9436" stroke="white" stroke-width="1.5" stroke-linecap="round" stroke-linejoin="round"/>
<path d="M12.1777 15.9436L7.17773 15.9436" stroke="white" stroke-width="1.5" stroke-linecap="round" stroke-linejoin="round"/>
<path d="M19.1777 2.9436H5.17773C4.07316 2.9436 3.17773 3.83903 3.17773 4.9436V20.0979C3.17773 21.4832 4.55185 22.4489 5.85517 21.9797L7.41694 21.4175C7.90495 21.2418 8.44212 21.2626 8.91511 21.4754L11.357 22.5743C11.879 22.8092 12.4765 22.8092 12.9985 22.5743L15.4404 21.4754C15.9133 21.2626 16.4505 21.2418 16.9385 21.4175L18.5003 21.9797C19.8036 22.4489 21.1777 21.4832 21.1777 20.0979V4.9436C21.1777 3.83903 20.2823 2.9436 19.1777 2.9436Z" stroke="white" stroke-width="1.5" stroke-linecap="round"/>
</svg>
