<svg width="25" height="25" viewBox="0 0 25 25" fill="none" xmlns="http://www.w3.org/2000/svg">
<path opacity="0.4" fill-rule="evenodd" clip-rule="evenodd" d="M12.1943 4.43018C7.63799 4.43018 3.94434 8.12383 3.94434 12.6802C3.94434 17.2365 7.63799 20.9302 12.1943 20.9302C16.7507 20.9302 20.4443 17.2365 20.4443 12.6802C20.4443 12.266 20.7801 11.9302 21.1943 11.9302C21.6085 11.9302 21.9443 12.266 21.9443 12.6802C21.9443 18.065 17.5791 22.4302 12.1943 22.4302C6.80956 22.4302 2.44434 18.065 2.44434 12.6802C2.44434 7.2954 6.80956 2.93018 12.1943 2.93018C14.9654 2.93018 17.4658 4.08639 19.2403 5.94108V3.68018C19.2403 3.26596 19.5761 2.93018 19.9903 2.93018C20.4045 2.93018 20.7403 3.26596 20.7403 3.68018V8.18018C20.7403 8.59439 20.4045 8.93018 19.9903 8.93018H15.5693C15.1551 8.93018 14.8193 8.59439 14.8193 8.18018C14.8193 7.76596 15.1551 7.43018 15.5693 7.43018H18.5587C17.0448 5.59699 14.7555 4.43018 12.1943 4.43018Z" fill="#00A79D"/>
<path d="M19.3077 7.43018V3.68018C19.3077 3.26596 19.6435 2.93018 20.0577 2.93018C20.4719 2.93018 20.8077 3.26596 20.8077 3.68018V8.18018C20.8077 8.59439 20.4719 8.93018 20.0577 8.93018H15.6367C15.2225 8.93018 14.8867 8.59439 14.8867 8.18018C14.8867 7.76596 15.2225 7.43018 15.6367 7.43018H19.3077Z" fill="#00A79D"/>
</svg>
