<svg width="19" height="19" viewBox="0 0 19 19" fill="none" xmlns="http://www.w3.org/2000/svg">
<path d="M18.4415 7.37395C18.4345 7.32151 18.4001 7.27723 18.3511 7.25742C18.3243 7.24693 16.2559 6.44754 13.1796 6.55416C13.4633 5.49083 13.4575 4.4811 13.3986 3.80524C13.2728 2.36553 13.9988 1.17343 14.0063 1.16178C14.0343 1.11692 14.0355 1.06039 14.0098 1.01379C13.9842 0.967758 13.9353 0.939209 13.8822 0.939209C13.7552 0.939209 10.7243 0.964842 7.42128 3.18763C6.49662 3.80932 5.87784 4.66289 5.58011 5.72681C3.17727 4.0249 1.06751 3.62113 1.04131 3.61646C0.989445 3.60656 0.936415 3.62578 0.902646 3.66656C0.868847 3.70736 0.860113 3.76329 0.879317 3.81223C0.88458 3.82622 1.41536 5.21991 1.00401 6.70857C0.772716 7.54407 0.45283 9.19355 0.909616 10.8564C1.47536 12.9172 3.02347 14.336 5.51019 15.0771C4.55582 16.2686 3.96037 17.1904 3.80248 17.4409C3.74421 17.5341 3.73661 17.6495 3.78148 17.7497C3.90791 18.0288 4.16253 18.1482 4.35422 18.1989C4.38162 18.2059 4.40959 18.21 4.43755 18.21C4.49872 18.21 4.55992 18.1925 4.61235 18.1593C4.68808 18.1115 4.74051 18.034 4.75741 17.9466C5.0062 16.624 5.83181 15.7955 6.30202 15.4191C6.46048 15.2921 6.67024 15.2525 6.8625 15.3131C9.19775 16.053 11.2236 15.982 12.883 15.101C15.2468 13.8466 16.2309 11.2509 16.5444 10.1928C17.0373 8.5305 18.371 7.51961 18.3843 7.50971C18.4269 7.47824 18.4484 7.42638 18.4415 7.37395ZM6.0672 10.8547C5.93087 10.4346 5.78347 10.0285 5.62671 9.63636C5.79394 9.96905 5.9606 10.325 6.12256 10.7038C6.10566 10.7486 6.08876 10.7941 6.07186 10.8401C6.07013 10.8448 6.06896 10.8494 6.0672 10.8547ZM10.7354 10.0454C10.0345 10.54 9.37605 11.0737 8.76427 11.6197C8.77827 11.5206 8.7899 11.4222 8.79923 11.3249C9.47278 10.8267 10.1259 10.4025 10.7354 10.0454ZM7.58384 3.42944C10.2768 1.6174 12.8364 1.29811 13.6305 1.24218C13.4132 1.67683 13.0065 2.66558 13.1085 3.83029C13.1563 4.3803 13.186 5.45471 12.8737 6.56756C12.0481 6.61184 11.156 6.72255 10.2151 6.92997C9.37955 7.11467 8.63957 7.46775 8.00683 7.97815C7.95149 7.89658 7.89263 7.81617 7.83087 7.73693C8.7899 5.75069 9.94529 4.15075 11.2673 2.98255C11.2749 2.9773 11.2819 2.97147 11.2883 2.96507C11.3454 2.90855 11.3454 2.81591 11.2883 2.75939C11.2423 2.71336 11.1735 2.70463 11.1187 2.73259C11.1182 2.73316 11.1176 2.73316 11.117 2.73376C11.1118 2.73608 11.1065 2.73958 11.1013 2.74308C11.0989 2.74483 11.0966 2.74599 11.0943 2.74773C11.0937 2.74833 11.0937 2.74833 11.0931 2.7489H11.0925C11.0902 2.75065 11.0879 2.75298 11.0855 2.75473C11.0844 2.7559 11.0832 2.75648 11.082 2.75764C11.082 2.75764 11.082 2.75764 11.0815 2.75764C11.0815 2.75823 11.0815 2.75823 11.0809 2.75823C10.8601 2.92369 8.99326 4.36807 7.30709 7.1607C6.8165 6.68526 6.32009 6.271 5.83357 5.91035C6.10043 4.86624 6.68831 4.03132 7.58384 3.42944ZM7.62637 7.49164C7.59141 7.45202 7.55528 7.41298 7.51858 7.37395C7.84194 6.83383 8.17172 6.34499 8.49511 5.90627C8.19036 6.40326 7.9008 6.93288 7.62637 7.49164ZM1.28486 6.78605C1.61989 5.57299 1.3769 4.44732 1.23417 3.95964C2.03764 4.16473 4.67644 4.9886 7.16839 7.43163C7.19056 7.45377 7.21209 7.47591 7.23425 7.49805C7.23599 7.49979 7.23775 7.50213 7.24009 7.50388C7.44635 7.71538 7.62928 7.93794 7.78427 8.16809C7.45041 8.46874 7.14976 8.81658 6.88407 9.20986C6.8695 9.22326 6.85844 9.24016 6.85087 9.25881C6.63528 9.5845 6.44302 9.94051 6.27579 10.3262C5.11167 7.71538 3.76518 6.2203 3.60669 6.05018C3.60669 6.04959 3.60612 6.04959 3.60612 6.04959V6.04901C3.60435 6.04726 3.60319 6.04609 3.60202 6.04493L3.49716 6.14572L3.48085 6.16262L3.38469 6.23837C4.44862 7.59477 5.29869 9.30949 5.91223 11.3342C5.50672 12.7209 5.51369 13.8833 5.51428 13.9374C5.51485 13.9975 5.55215 14.0505 5.60751 14.072C5.66344 14.0936 5.72635 14.079 5.76657 14.0353C6.66501 13.067 7.58558 12.2519 8.47761 11.5667C8.46014 11.6896 8.43974 11.8137 8.41528 11.9372C7.34728 12.9277 6.43545 13.9433 5.70888 14.8312C0.148705 13.2406 0.759886 8.68082 1.28486 6.78605Z" fill="#00A79D"/>
</svg>
