<svg width="24" height="24" viewBox="0 0 24 24" fill="none" xmlns="http://www.w3.org/2000/svg">
<path d="M16.2423 10.5858C15.4613 11.3669 14.195 11.3669 13.4139 10.5858C12.6329 9.8048 12.6329 8.53847 13.4139 7.75742C14.195 6.97637 15.4613 6.97637 16.2423 7.75742C17.0234 8.53847 17.0234 9.8048 16.2423 10.5858Z" stroke="#00A79D" stroke-width="1.5"/>
<path d="M9.41071 4.68911C10.2476 3.85219 11.4036 3.41786 12.5751 3.50011L16.5394 3.77844C18.5189 3.91741 20.0819 5.48041 20.2209 7.45987L20.4992 11.4242C20.5814 12.5958 20.1471 13.7517 19.3102 14.5886L12.7448 21.154C11.1615 22.7373 8.61162 22.7545 7.04952 21.1924L2.80688 16.9498C1.24479 15.3877 1.26201 12.8378 2.84535 11.2545L9.41071 4.68911Z" stroke="#00A79D" stroke-width="1.5" stroke-linejoin="round"/>
</svg>
