<svg width="25" height="25" viewBox="0 0 25 25" fill="none" xmlns="http://www.w3.org/2000/svg">
<path opacity="0.4" fill-rule="evenodd" clip-rule="evenodd" d="M10.4276 16.5898H8.5506C7.36348 16.5898 6.23769 17.1171 5.47771 18.0291L4.41074 19.3095C3.32519 20.6121 4.25151 22.5898 5.94718 22.5898H19.407C21.1027 22.5898 22.029 20.6121 20.9435 19.3095L19.8765 18.0291C19.1165 17.1171 17.9907 16.5898 16.8036 16.5898H14.9271V18.0898C14.9271 19.3325 13.9197 20.3398 12.6771 20.3398C11.4345 20.3398 10.4271 19.3325 10.4271 18.0898L10.4276 16.5898Z" fill="#00A79D"/>
<path d="M13.4277 18.0898C13.4277 18.5041 13.0919 18.8398 12.6777 18.8398C12.2635 18.8398 11.9277 18.5041 11.9277 18.0898L11.9326 4.08984C11.9326 2.98527 12.828 2.08984 13.9326 2.08984H19.3145C20.0579 2.08984 20.5414 2.87216 20.209 3.53706L19.1562 5.64263C19.0154 5.92416 19.0154 6.25553 19.1562 6.53706L20.209 8.64263C20.5414 9.30753 20.0579 10.0898 19.3145 10.0898H13.4277V18.0898Z" fill="#00A79D"/>
</svg>
