<svg width="33" height="33" viewBox="0 0 33 33" fill="none" xmlns="http://www.w3.org/2000/svg">
<path d="M16.6777 2.57471C8.95586 2.57471 2.67773 8.85283 2.67773 16.5747C2.67773 24.2966 8.95586 30.5747 16.6777 30.5747C24.3996 30.5747 30.6777 24.2966 30.6777 16.5747C30.6777 8.85283 24.3996 2.57471 16.6777 2.57471Z" fill="#141414"/>
<path d="M10.6777 17.5747C10.6777 16.9838 11.1323 16.5747 11.6777 16.5747C12.2232 16.5747 12.6777 16.9838 12.6777 17.5747C12.6777 18.1656 12.2686 18.5747 11.6777 18.5747C11.0868 18.5747 10.6777 18.1202 10.6777 17.5747Z" fill="white"/>
<path fill-rule="evenodd" clip-rule="evenodd" d="M11.6777 14.5747C10.0414 14.5747 8.67773 15.802 8.67773 17.5747C8.67773 19.2111 9.90501 20.5747 11.6777 20.5747C13.4505 20.5747 14.6777 19.3474 14.6777 17.5747C14.6777 15.802 13.3141 14.5747 11.6777 14.5747ZM11.6777 15.5747C10.5868 15.5747 9.67773 16.3929 9.67773 17.5747C9.67773 18.6656 10.4959 19.5747 11.6777 19.5747C12.8596 19.5747 13.6777 18.7565 13.6777 17.5747C13.6777 16.3929 12.7686 15.5747 11.6777 15.5747Z" fill="white"/>
<path d="M22.6777 17.5747C22.6777 16.9838 22.2232 16.5747 21.6777 16.5747C21.1323 16.5747 20.6777 16.9838 20.6777 17.5747C20.6777 18.1656 21.0868 18.5747 21.6777 18.5747C22.2686 18.5747 22.6777 18.1202 22.6777 17.5747Z" fill="white"/>
<path fill-rule="evenodd" clip-rule="evenodd" d="M21.6777 14.5747C23.3141 14.5747 24.6777 15.802 24.6777 17.5747C24.6777 19.2111 23.4505 20.5747 21.6777 20.5747C19.905 20.5747 18.6777 19.3474 18.6777 17.5747C18.6777 15.802 20.0414 14.5747 21.6777 14.5747ZM21.6777 15.5747C22.7686 15.5747 23.6777 16.3929 23.6777 17.5747C23.6777 18.6656 22.8596 19.5747 21.6777 19.5747C20.4959 19.5747 19.6777 18.7565 19.6777 17.5747C19.6777 16.3929 20.5868 15.5747 21.6777 15.5747Z" fill="white"/>
<path fill-rule="evenodd" clip-rule="evenodd" d="M9.67773 12.5585C11.5288 11.3874 14.1088 10.5747 16.6777 10.5747C19.2466 10.5747 21.8266 11.3874 23.6777 12.5585L26.6777 12.5747L25.6122 14.5607C26.2166 15.3541 26.6777 16.4792 26.6777 17.5747C26.6777 20.3325 24.3278 22.5747 21.6455 22.5747C20.0589 22.5747 18.6222 21.6703 17.6777 20.5747L16.6777 22.5747L15.6777 20.5747C14.7333 21.6703 13.2966 22.5747 11.7099 22.5747C9.02771 22.5747 6.67773 20.3325 6.67773 17.5747C6.67773 16.4792 7.13883 15.3541 7.74327 14.5607L6.67773 12.5747L9.67773 12.5585ZM16.6777 17.0747C16.8666 14.5436 19.0766 12.6125 21.6455 12.5747C20.2478 11.9703 18.4533 11.5747 16.6777 11.5747C14.9022 11.5747 13.1077 11.9703 11.7099 12.5747C14.2788 12.6125 16.4888 14.5436 16.6777 17.0747ZM11.7099 21.5925C9.51883 21.5925 7.67773 19.7658 7.67773 17.5747C7.67773 15.3836 9.51883 13.5407 11.7099 13.5407C13.901 13.5407 15.6766 15.3836 15.6766 17.5747C15.6766 19.728 13.901 21.5925 11.7099 21.5925ZM21.6455 21.5925C23.8366 21.5925 25.6777 19.7658 25.6777 17.5747C25.6777 15.3836 23.8366 13.5407 21.6455 13.5407C19.4544 13.5407 17.6789 15.3836 17.6789 17.5747C17.6789 19.728 19.4544 21.5925 21.6455 21.5925Z" fill="white"/>
</svg>
