<svg width="258" height="110" viewBox="0 0 258 110" fill="none" xmlns="http://www.w3.org/2000/svg">
<path d="M3.55863 109.149H0L0 6.86646e-05H3.55863L3.55863 109.149Z" fill="#606161"/>
<path d="M7.11818 109.149H5.33887L5.33887 6.86646e-05H7.11818L7.11818 109.149Z" fill="#606161"/>
<path d="M12.4573 109.149H10.678L10.678 6.86646e-05H12.4573L12.4573 109.149Z" fill="#606161"/>
<path d="M23.1299 109.149H19.5713L19.5713 6.86646e-05H23.1299L23.1299 109.149Z" fill="#606161"/>
<path d="M30.2481 109.149H24.9102L24.9102 6.86646e-05H30.2481L30.2481 109.149Z" fill="#606161"/>
<path d="M33.8081 109.149H32.0288L32.0288 6.86646e-05H33.8081L33.8081 109.149Z" fill="#606161"/>
<path d="M44.4805 109.149H39.1426L39.1426 6.86646e-05H44.4805L44.4805 109.149Z" fill="#606161"/>
<path d="M51.5999 109.149H49.8206L49.8206 6.86646e-05H51.5999L51.5999 109.149Z" fill="#606161"/>
<path d="M56.9385 109.149H53.3799L53.3799 6.86646e-05H56.9385L56.9385 109.149Z" fill="#606161"/>
<path d="M60.4981 109.149H58.7188L58.7187 6.86646e-05H60.4981L60.4981 109.149Z" fill="#606161"/>
<path d="M71.1705 109.149H65.8325V6.86646e-05H71.1705V109.149Z" fill="#606161"/>
<path d="M76.5098 109.149H72.9512V6.86646e-05H76.5098V109.149Z" fill="#606161"/>
<path d="M83.628 109.149H78.29V6.86646e-05H83.628V109.149Z" fill="#606161"/>
<path d="M87.188 109.149H85.4087V6.86646e-05H87.188V109.149Z" fill="#606161"/>
<path d="M96.0811 109.149H92.5225V6.86646e-05H96.0811V109.149Z" fill="#606161"/>
<path d="M99.6406 109.149H97.8613V6.86646e-05H99.6406V109.149Z" fill="#606161"/>
<path d="M106.759 109.149H101.421V6.86646e-05H106.759V109.149Z" fill="#606161"/>
<path d="M115.657 109.149H112.099V6.86646e-05H115.657V109.149Z" fill="#606161"/>
<path d="M120.996 109.149H117.438V6.86646e-05H120.996V109.149Z" fill="#606161"/>
<path d="M124.551 109.149H122.771V6.86646e-05H124.551V109.149Z" fill="#606161"/>
<path d="M131.669 109.149H129.89V6.86646e-05H131.669V109.149Z" fill="#606161"/>
<path d="M138.788 109.149H137.009V6.86646e-05H138.788V109.149Z" fill="#606161"/>
<path d="M145.901 109.149H140.563V6.86646e-05H145.901V109.149Z" fill="#606161"/>
<path d="M153.02 109.149H149.461V6.86646e-05H153.02V109.149Z" fill="#606161"/>
<path d="M161.918 109.149H156.58V6.86646e-05H161.918V109.149Z" fill="#606161"/>
<path d="M165.473 109.149H163.694V6.86646e-05H165.473V109.149Z" fill="#606161"/>
<path d="M174.371 109.149H170.812V6.86646e-05H174.371V109.149Z" fill="#606161"/>
<path d="M177.931 109.149H176.151V6.86646e-05H177.931V109.149Z" fill="#606161"/>
<path d="M186.829 109.149H183.27V6.86646e-05H186.829V109.149Z" fill="#606161"/>
<path d="M190.388 109.149H188.609V6.86646e-05H190.388V109.149Z" fill="#606161"/>
<path d="M197.502 109.149H195.723V6.86646e-05H197.502V109.149Z" fill="#606161"/>
<path d="M204.621 109.149H202.841V6.86646e-05H204.621V109.149Z" fill="#606161"/>
<path d="M209.959 109.149H206.401V6.86646e-05H209.959V109.149Z" fill="#606161"/>
<path d="M217.078 109.149H215.299V6.86646e-05H217.078V109.149Z" fill="#606161"/>
<path d="M225.971 109.149H222.413V6.86646e-05H225.971V109.149Z" fill="#606161"/>
<path d="M233.089 109.149H227.751V6.86646e-05H233.089V109.149Z" fill="#606161"/>
<path d="M238.429 109.149H234.87V6.86646e-05H238.429V109.149Z" fill="#606161"/>
<path d="M249.106 109.149H243.768V6.86646e-05H249.106V109.149Z" fill="#606161"/>
<path d="M252.661 109.149H250.882V6.86646e-05H252.661V109.149Z" fill="#606161"/>
<path d="M258 109.149H254.441V6.86646e-05H258V109.149Z" fill="#606161"/>
</svg>
