<svg width="20" height="20" viewBox="0 0 20 20" fill="none" xmlns="http://www.w3.org/2000/svg">
<path opacity="0.4" d="M18.3333 9.9974C18.3333 14.5998 14.6024 18.3307 10 18.3307C5.39763 18.3307 1.66667 14.5998 1.66667 9.9974C1.66667 5.39502 5.39763 1.66406 10 1.66406C14.6024 1.66406 18.3333 5.39502 18.3333 9.9974Z" fill="#E5F6F5"/>
<path fill-rule="evenodd" clip-rule="evenodd" d="M10.625 6.66406C10.625 6.31888 10.3452 6.03906 10 6.03906C9.65483 6.03906 9.37501 6.31888 9.37501 6.66406V9.3724H6.66667C6.32149 9.3724 6.04167 9.65222 6.04167 9.9974C6.04167 10.3426 6.32149 10.6224 6.66667 10.6224H9.37501V13.3307C9.37501 13.6759 9.65483 13.9557 10 13.9557C10.3452 13.9557 10.625 13.6759 10.625 13.3307V10.6224H13.3333C13.6785 10.6224 13.9583 10.3426 13.9583 9.9974C13.9583 9.65222 13.6785 9.3724 13.3333 9.3724H10.625V6.66406Z" fill="#E5F6F5"/>
</svg>
