<svg width="32" height="33" viewBox="0 0 32 33" fill="none" xmlns="http://www.w3.org/2000/svg">
<mask id="mask0_7914_42942" style="mask-type:alpha" maskUnits="userSpaceOnUse" x="0" y="0" width="32" height="33">
<rect y="0.712891" width="32" height="32" fill="#D9D9D9"/>
</mask>
<g mask="url(#mask0_7914_42942)">
<path d="M8.00065 26.0461C6.88954 26.0461 5.9451 25.6572 5.16732 24.8794C4.38954 24.1016 4.00065 23.1572 4.00065 22.0461H1.33398V10.0461C1.33398 9.31273 1.5951 8.68495 2.11732 8.16273C2.63954 7.64051 3.26732 7.37939 4.00065 7.37939H22.6673L30.6673 15.3794V22.0461H28.0007C28.0007 23.1572 27.6118 24.1016 26.834 24.8794C26.0562 25.6572 25.1118 26.0461 24.0007 26.0461C22.8895 26.0461 21.9451 25.6572 21.1673 24.8794C20.3895 24.1016 20.0007 23.1572 20.0007 22.0461H12.0007C12.0007 23.1572 11.6118 24.1016 10.834 24.8794C10.0562 25.6572 9.11176 26.0461 8.00065 26.0461ZM20.0007 14.0461H25.334L21.334 10.0461H20.0007V14.0461ZM12.0007 14.0461H17.334V10.0461H12.0007V14.0461ZM4.00065 14.0461H9.33398V10.0461H4.00065V14.0461ZM8.00065 23.7127C8.46732 23.7127 8.86176 23.5516 9.18398 23.2294C9.50621 22.9072 9.66732 22.5127 9.66732 22.0461C9.66732 21.5794 9.50621 21.1849 9.18398 20.8627C8.86176 20.5405 8.46732 20.3794 8.00065 20.3794C7.53398 20.3794 7.13954 20.5405 6.81732 20.8627C6.4951 21.1849 6.33398 21.5794 6.33398 22.0461C6.33398 22.5127 6.4951 22.9072 6.81732 23.2294C7.13954 23.5516 7.53398 23.7127 8.00065 23.7127ZM24.0007 23.7127C24.4673 23.7127 24.8618 23.5516 25.184 23.2294C25.5062 22.9072 25.6673 22.5127 25.6673 22.0461C25.6673 21.5794 25.5062 21.1849 25.184 20.8627C24.8618 20.5405 24.4673 20.3794 24.0007 20.3794C23.534 20.3794 23.1395 20.5405 22.8173 20.8627C22.4951 21.1849 22.334 21.5794 22.334 22.0461C22.334 22.5127 22.4951 22.9072 22.8173 23.2294C23.1395 23.5516 23.534 23.7127 24.0007 23.7127Z" fill="#00A79D"/>
</g>
</svg>
