<svg width="20" height="19" viewBox="0 0 20 19" fill="none" xmlns="http://www.w3.org/2000/svg">
<path fill-rule="evenodd" clip-rule="evenodd" d="M6.38836 0.712891H13.6113C15.5667 0.712891 17.2355 2.12654 17.5569 4.05529L19.2236 14.0553C19.6299 16.4934 17.7498 18.7129 15.278 18.7129H4.72169C2.24994 18.7129 0.369763 16.4934 0.776117 14.0553L2.44278 4.05529C2.76424 2.12654 4.433 0.712891 6.38836 0.712891ZM9.99985 8.46289C12.0709 8.46289 13.7499 6.78396 13.7499 4.71289V3.71289C13.7499 3.29868 13.4141 2.96289 12.9999 2.96289C12.5856 2.96289 12.2499 3.29868 12.2499 3.71289V4.71289C12.2499 5.95553 11.2425 6.96289 9.99985 6.96289C8.75721 6.96289 7.74985 5.95553 7.74985 4.71289V3.71289C7.74985 3.29868 7.41406 2.96289 6.99985 2.96289C6.58564 2.96289 6.24985 3.29868 6.24985 3.71289V4.71289C6.24985 6.78396 7.92878 8.46289 9.99985 8.46289Z" fill="#00A79D"/>
</svg>
