<svg width="25" height="25" viewBox="0 0 25 25" fill="none" xmlns="http://www.w3.org/2000/svg">
<mask id="mask0_8320_18145" style="mask-type:alpha" maskUnits="userSpaceOnUse" x="0" y="0" width="25" height="25">
<rect x="0.958008" y="0.267822" width="24" height="24" fill="#D9D9D9"/>
</mask>
<g mask="url(#mask0_8320_18145)">
<path d="M5.95801 19.2678H4.95801L4.30801 17.2678H2.95801V12.2428C2.95801 11.6928 3.15384 11.2262 3.54551 10.8428C3.93717 10.4595 4.40801 10.2678 4.95801 10.2678V7.26782C4.95801 6.71782 5.15384 6.24699 5.54551 5.85532C5.93717 5.46366 6.40801 5.26782 6.95801 5.26782H18.958C19.508 5.26782 19.9788 5.46366 20.3705 5.85532C20.7622 6.24699 20.958 6.71782 20.958 7.26782V10.2678C21.508 10.2678 21.9788 10.4637 22.3705 10.8553C22.7622 11.247 22.958 11.7178 22.958 12.2678V17.2678H21.608L20.958 19.2678H19.958L19.308 17.2678H6.60801L5.95801 19.2678ZM13.958 10.2678H18.958V7.26782H13.958V10.2678ZM6.95801 10.2678H11.958V7.26782H6.95801V10.2678Z" fill="#00A79D"/>
</g>
</svg>
