<svg width="20" height="20" viewBox="0 0 20 20" fill="none" xmlns="http://www.w3.org/2000/svg">
<path d="M9.54389 1.01548C9.72064 0.621963 10.2794 0.621964 10.4561 1.01548L10.6862 1.52787C10.8386 1.86714 11.2949 1.9272 11.5299 1.63893L11.8848 1.20358C12.1574 0.869211 12.6971 1.01382 12.7659 1.43967L12.8556 1.99416C12.915 2.36131 13.3402 2.53742 13.6418 2.3198L14.0973 1.99113C14.4471 1.7387 14.9309 2.01806 14.8873 2.44723L14.8304 3.00604C14.7927 3.37605 15.1578 3.6562 15.5055 3.52405L16.0305 3.32447C16.4337 3.17119 16.8288 3.56626 16.6755 3.9695L16.476 4.49454C16.3438 4.84219 16.624 5.2073 16.994 5.16963L17.5528 5.11274C17.9819 5.06905 18.2613 5.55291 18.0089 5.90274L17.6802 6.35824C17.4626 6.65984 17.6387 7.08501 18.0058 7.14439L18.5603 7.23407C18.9862 7.30295 19.1308 7.84262 18.7964 8.1152L18.3611 8.47011C18.0728 8.70511 18.1329 9.16137 18.4721 9.31376L18.9845 9.54389C19.378 9.72064 19.378 10.2794 18.9845 10.4561L18.4721 10.6862C18.1329 10.8386 18.0728 11.2949 18.3611 11.5299L18.7964 11.8848C19.1308 12.1574 18.9862 12.6971 18.5603 12.7659L18.0058 12.8556C17.6387 12.915 17.4626 13.3402 17.6802 13.6418L18.0089 14.0973C18.2613 14.4471 17.9819 14.9309 17.5528 14.8873L16.994 14.8304C16.624 14.7927 16.3438 15.1578 16.476 15.5055L16.6755 16.0305C16.8288 16.4337 16.4337 16.8288 16.0305 16.6755L15.5055 16.476C15.1578 16.3438 14.7927 16.624 14.8304 16.994L14.8873 17.5528C14.9309 17.9819 14.4471 18.2613 14.0973 18.0089L13.6418 17.6802C13.3402 17.4626 12.915 17.6387 12.8556 18.0058L12.7659 18.5603C12.6971 18.9862 12.1574 19.1308 11.8848 18.7964L11.5299 18.3611C11.2949 18.0728 10.8386 18.1329 10.6862 18.4721L10.4561 18.9845C10.2794 19.378 9.72064 19.378 9.54389 18.9845L9.31376 18.4721C9.16137 18.1329 8.70511 18.0728 8.47011 18.3611L8.1152 18.7964C7.84262 19.1308 7.30295 18.9862 7.23407 18.5603L7.14439 18.0058C7.08501 17.6387 6.65984 17.4626 6.35824 17.6802L5.90274 18.0089C5.55291 18.2613 5.06905 17.9819 5.11274 17.5528L5.16963 16.994C5.2073 16.624 4.8422 16.3438 4.49454 16.476L3.9695 16.6755C3.56626 16.8288 3.17119 16.4337 3.32447 16.0305L3.52405 15.5055C3.6562 15.1578 3.37605 14.7927 3.00604 14.8304L2.44723 14.8873C2.01806 14.9309 1.7387 14.4471 1.99113 14.0973L2.3198 13.6418C2.53742 13.3402 2.36131 12.915 1.99416 12.8556L1.43967 12.7659C1.01382 12.6971 0.86921 12.1574 1.20358 11.8848L1.63893 11.5299C1.9272 11.2949 1.86714 10.8386 1.52787 10.6862L1.01548 10.4561C0.621963 10.2794 0.621964 9.72064 1.01548 9.54389L1.52787 9.31376C1.86714 9.16137 1.9272 8.70511 1.63893 8.47011L1.20358 8.1152C0.869211 7.84262 1.01382 7.30295 1.43967 7.23407L1.99416 7.14439C2.36131 7.08501 2.53742 6.65984 2.3198 6.35824L1.99113 5.90274C1.7387 5.55291 2.01806 5.06905 2.44723 5.11274L3.00604 5.16963C3.37605 5.2073 3.6562 4.8422 3.52405 4.49454L3.32447 3.9695C3.17119 3.56626 3.56626 3.17119 3.9695 3.32447L4.49454 3.52405C4.84219 3.6562 5.2073 3.37605 5.16963 3.00604L5.11274 2.44723C5.06905 2.01806 5.55291 1.7387 5.90274 1.99113L6.35824 2.3198C6.65984 2.53742 7.08501 2.36131 7.14439 1.99416L7.23407 1.43967C7.30295 1.01382 7.84262 0.86921 8.1152 1.20358L8.47011 1.63893C8.70511 1.9272 9.16137 1.86714 9.31376 1.52787L9.54389 1.01548Z" fill="#E5F6F5"/>
<path d="M14.2857 7.14282L8.72025 12.8571L6.19049 10.2597" stroke="#00A79D" stroke-width="1.5" stroke-linecap="round" stroke-linejoin="round"/>
</svg>
