<svg width="24" height="24" viewBox="0 0 24 24" fill="none" xmlns="http://www.w3.org/2000/svg">
<path d="M14.8214 5.21094C15.7981 5.4015 16.6957 5.87919 17.3994 6.58287C18.1031 7.28655 18.5808 8.1842 18.7714 9.16094M14.8214 1.21094C16.8506 1.43637 18.7429 2.34511 20.1876 3.78795C21.6322 5.23078 22.5434 7.12195 22.7714 9.15094M21.7714 17.1309V20.1309C21.7725 20.4094 21.7154 20.6851 21.6039 20.9403C21.4923 21.1955 21.3287 21.4245 21.1234 21.6128C20.9182 21.8011 20.6759 21.9444 20.4121 22.0336C20.1483 22.1229 19.8687 22.156 19.5914 22.1309C16.5142 21.7966 13.5584 20.7451 10.9614 19.0609C8.54518 17.5256 6.49669 15.4771 4.96136 13.0609C3.27133 10.4521 2.2196 7.48193 1.89136 4.39094C1.86637 4.1144 1.89923 3.8357 1.98786 3.57256C2.07648 3.30943 2.21893 3.06763 2.40612 2.86256C2.59332 2.65749 2.82116 2.49365 3.07515 2.38146C3.32913 2.26927 3.6037 2.2112 3.88136 2.21094H6.88136C7.36666 2.20616 7.83715 2.37802 8.20512 2.69447C8.57309 3.01092 8.81343 3.45038 8.88136 3.93094C9.00798 4.891 9.24281 5.83366 9.58136 6.74094C9.7159 7.09886 9.74502 7.48785 9.66526 7.86182C9.58551 8.23578 9.40022 8.57905 9.13136 8.85094L7.86136 10.1209C9.28491 12.6245 11.3578 14.6974 13.8614 16.1209L15.1314 14.8509C15.4032 14.5821 15.7465 14.3968 16.1205 14.317C16.4944 14.2373 16.8834 14.2664 17.2414 14.4009C18.1486 14.7395 19.0913 14.9743 20.0514 15.1009C20.5371 15.1695 20.9808 15.4141 21.2979 15.7884C21.615 16.1627 21.7835 16.6405 21.7714 17.1309Z" stroke="white" stroke-width="2" stroke-linecap="round" stroke-linejoin="round"/>
</svg>
