<svg width="20" height="18" viewBox="0 0 20 18" fill="none" xmlns="http://www.w3.org/2000/svg">
<path d="M14.4303 14.3998C14.4303 13.0734 13.3567 11.9998 12.0303 11.9998H8.43027C7.10387 11.9998 6.03027 13.0734 6.03027 14.3998" stroke="white" stroke-linecap="round" stroke-linejoin="round"/>
<path d="M16.8302 6C16.8302 7.3264 13.8782 7.2 10.2302 7.2C6.58225 7.2 3.63025 7.3264 3.63025 6" stroke="white" stroke-linecap="round" stroke-linejoin="round"/>
<path d="M1.23022 12H4.23022C4.56222 12 4.83022 11.732 4.83022 11.4C4.83022 10.0736 3.75662 9.60001 2.43022 9.60001L1.60862 9.59521" stroke="white" stroke-linecap="round" stroke-linejoin="round"/>
<path d="M19.2302 12.0001H16.2302C15.8982 12.0001 15.6302 11.7321 15.6302 11.4001C15.6302 10.0737 16.7038 9.6001 18.0302 9.6001H18.8542" stroke="white" stroke-linecap="round" stroke-linejoin="round"/>
<path d="M3.63022 6H1.83022C1.49822 6 1.23022 6.268 1.23022 6.6V7.2C1.23022 7.8632 1.76702 8.4 2.43022 8.4V8.46C1.23022 9.66 1.23022 10.8 1.23022 12V16.2C1.23022 16.532 1.49822 16.8 1.83022 16.8H4.23022C4.56222 16.8 4.83022 16.532 4.83022 16.2V14.4H15.6302V16.2C15.6302 16.532 15.8982 16.8 16.2302 16.8H18.6302C18.9622 16.8 19.2302 16.532 19.2302 16.2V11.4V12C19.2302 10.8 19.2302 9.66 18.0302 8.46V8.4C18.6934 8.4 19.2302 7.8632 19.2302 7.2V6.6C19.2302 6.268 18.9622 6 18.6302 6H16.8302" stroke="white" stroke-linecap="round" stroke-linejoin="round"/>
<path d="M16.8302 5.99995L15.6302 2.39995C15.4054 1.79995 14.5566 1.19995 13.2302 1.19995H7.23025C5.90385 1.19995 5.05505 1.79995 4.83025 2.39995L3.63025 5.99995" stroke="white" stroke-linecap="round" stroke-linejoin="round"/>
</svg>
