<svg width="20" height="21" viewBox="0 0 20 21" fill="none" xmlns="http://www.w3.org/2000/svg">
<g clip-path="url(#clip0_6370_9099)">
<path d="M15.7667 5.60953C15.6813 5.36373 15.5214 5.15062 15.3094 4.99979C15.0973 4.84896 14.8436 4.7679 14.5833 4.76787H5.41667C4.87083 4.76787 4.40417 5.11787 4.23333 5.60953L2.5 10.6012V17.2679C2.5 17.7262 2.875 18.1012 3.33333 18.1012H4.16667C4.38768 18.1012 4.59964 18.0134 4.75592 17.8571C4.9122 17.7008 5 17.4889 5 17.2679V16.4345H15V17.2679C15 17.7262 15.375 18.1012 15.8333 18.1012H16.6667C16.8877 18.1012 17.0996 18.0134 17.2559 17.8571C17.4122 17.7008 17.5 17.4889 17.5 17.2679V10.6012L15.7667 5.60953ZM5.41667 13.9345C4.725 13.9345 4.16667 13.3762 4.16667 12.6845C4.16667 11.9929 4.725 11.4345 5.41667 11.4345C6.10833 11.4345 6.66667 11.9929 6.66667 12.6845C6.66667 13.3762 6.10833 13.9345 5.41667 13.9345ZM14.5833 13.9345C13.8917 13.9345 13.3333 13.3762 13.3333 12.6845C13.3333 11.9929 13.8917 11.4345 14.5833 11.4345C15.275 11.4345 15.8333 11.9929 15.8333 12.6845C15.8333 13.3762 15.275 13.9345 14.5833 13.9345ZM4.16667 9.76787L5.41667 6.01787H14.5833L15.8333 9.76787H4.16667Z" fill="#606161"/>
</g>
<defs>
<clipPath id="clip0_6370_9099">
<rect width="20" height="20" fill="white" transform="translate(0 0.601196)"/>
</clipPath>
</defs>
</svg>
