<svg width="25" height="25" viewBox="0 0 25 25" fill="none" xmlns="http://www.w3.org/2000/svg">
<path fill-rule="evenodd" clip-rule="evenodd" d="M3.25 1.75C2.83579 1.75 2.5 2.08579 2.5 2.5C2.5 2.91421 2.83579 3.25 3.25 3.25H5.25C5.94036 3.25 6.5 3.80964 6.5 4.5H8C8 2.98122 6.76878 1.75 5.25 1.75H3.25Z" fill="white"/>
<path opacity="0.4" d="M6.5 4.5H18.5C20.7091 4.5 22.5 6.29086 22.5 8.5V13.5C22.5 15.7091 20.7091 17.5 18.5 17.5H10.5C8.29086 17.5 6.5 15.7091 6.5 13.5V4.5Z" fill="white"/>
<circle cx="10" cy="21" r="1.5" fill="white"/>
<circle cx="19" cy="21" r="1.5" fill="white"/>
<path fill-rule="evenodd" clip-rule="evenodd" d="M17.9939 8.93558C18.3056 9.20834 18.3372 9.68216 18.0645 9.99389L15.1946 13.2738C14.5779 13.9786 13.5156 14.0729 12.7843 13.4879L11.0315 12.0857C10.7081 11.8269 10.6556 11.3549 10.9144 11.0315C11.1731 10.708 11.6451 10.6556 11.9685 10.9144L13.7214 12.3166C13.8258 12.4002 13.9776 12.3867 14.0657 12.286L16.9356 9.00613C17.2084 8.6944 17.6822 8.66282 17.9939 8.93558Z" fill="white"/>
</svg>
