<svg width="24" height="25" viewBox="0 0 24 25" fill="none" xmlns="http://www.w3.org/2000/svg">
<path opacity="0.4" d="M6 2.71289H18C20.2091 2.71289 22 4.50375 22 6.71289V18.7129C22 20.922 20.2091 22.7129 18 22.7129H6C3.79086 22.7129 2 20.922 2 18.7129V6.71289C2 4.50375 3.79086 2.71289 6 2.71289Z" fill="#4DC1BA"/>
<path fill-rule="evenodd" clip-rule="evenodd" d="M16.4605 9.12091C16.7874 9.37521 16.8463 9.84642 16.592 10.1734L12.585 15.3252C11.9613 16.1272 10.7881 16.2312 10.033 15.5516L7.49828 13.2704C7.1904 12.9933 7.16544 12.5191 7.44254 12.2112C7.71963 11.9033 8.19385 11.8784 8.50173 12.1555L11.0364 14.4367C11.1443 14.5338 11.3119 14.5189 11.401 14.4043L15.408 9.25247C15.6623 8.92551 16.1335 8.86661 16.4605 9.12091Z" fill="#4DC1BA"/>
</svg>
