<svg width="28" height="28" viewBox="0 0 28 28" fill="none" xmlns="http://www.w3.org/2000/svg">
<path opacity="0.4" d="M27.3327 14.0001C27.3327 21.3639 21.3631 27.3334 13.9993 27.3334C6.63555 27.3334 0.666016 21.3639 0.666016 14.0001C0.666016 6.63629 6.63555 0.666748 13.9993 0.666748C21.3631 0.666748 27.3327 6.63629 27.3327 14.0001Z" fill="#00A79D"/>
<path fill-rule="evenodd" clip-rule="evenodd" d="M19.9466 9.21069C20.3826 9.54976 20.4611 10.178 20.122 10.614L14.7794 17.4831C13.9478 18.5524 12.3835 18.6911 11.3766 17.785L7.99706 14.7433C7.58655 14.3739 7.55327 13.7416 7.92273 13.3311C8.29219 12.9206 8.92448 12.8873 9.33499 13.2568L12.7146 16.2984C12.8584 16.4278 13.0819 16.408 13.2007 16.2553L18.5433 9.38611C18.8824 8.95016 19.5107 8.87162 19.9466 9.21069Z" fill="#00A79D"/>
</svg>
