<svg width="32" height="32" viewBox="0 0 32 32" fill="none" xmlns="http://www.w3.org/2000/svg">
<path d="M15.9993 12.0001V15.176C15.9993 15.6811 16.2847 16.1427 16.7364 16.3686L18.666 17.3334M29.3327 16.0001C29.3327 23.3639 23.3631 29.3334 15.9993 29.3334C8.63555 29.3334 2.66602 23.3639 2.66602 16.0001C2.66602 8.63628 8.63555 2.66675 15.9993 2.66675C23.3631 2.66675 29.3327 8.63628 29.3327 16.0001ZM25.3327 16.0001C25.3327 21.1547 21.154 25.3334 15.9993 25.3334C10.8447 25.3334 6.66602 21.1547 6.66602 16.0001C6.66602 10.8454 10.8447 6.66675 15.9993 6.66675C21.154 6.66675 25.3327 10.8454 25.3327 16.0001Z" stroke="#00A79D" stroke-width="1.5" stroke-linecap="square"/>
</svg>
