<svg width="30" height="30" viewBox="0 0 30 30" fill="none" xmlns="http://www.w3.org/2000/svg">
<circle cx="15" cy="15" r="14.5" fill="white" stroke="#EDEDED"/>
<mask id="mask0_6128_118685" style="mask-type:alpha" maskUnits="userSpaceOnUse" x="0" y="0" width="30" height="30">
<circle cx="15" cy="15" r="15" fill="white"/>
</mask>
<g mask="url(#mask0_6128_118685)">
<path d="M21.6639 9.25951C20.9834 9.75258 19.9192 9.44717 19.1906 8.58981C18.703 8.8897 18.2098 9.26687 17.6128 9.7121C17.5609 9.76178 19.706 6.66721 23.5698 7.21915C23.9295 7.25227 23.6533 8.21449 23.4215 8.13722C22.9524 7.94956 22.5594 7.82813 22.1552 7.76742C22.2479 8.38375 22.0903 8.94858 21.6639 9.25951Z" fill="#00265D"/>
<path d="M5.47432 4.5551C3.96884 6.18334 2.81006 8.14458 2.14446 10.3082C11.1774 2.71161 23.1137 4.88443 27.15 6.92662C20.7165 1.78802 12.1322 1.76778 5.47432 4.5551Z" fill="#00265D"/>
<path d="M1.6383 12.6374C1.41581 14.2178 1.46588 15.8295 1.75882 17.3915C7.03915 9.05713 16.7506 6.30292 20.8017 6.29373C13.4004 4.75748 6.34943 7.88516 1.6383 12.6374Z" fill="#00265D"/>
<path d="M2.38549 19.6784C2.849 20.9552 3.49606 22.1548 4.27847 23.2439C6.70727 14.3981 14.2421 8.89522 17.8575 7.54296C10.5934 8.65973 5.18881 13.7891 2.38549 19.6784Z" fill="#00265D"/>
<path d="M5.82104 25.0782C6.72581 25.9834 7.7344 26.7837 8.85054 27.4369C9.00813 20.3941 12.5568 14.8121 16.1295 11.2171C16.0925 10.3965 16.3001 9.62563 16.7506 8.96698C10.6212 12.3449 6.78885 18.8523 5.82104 25.0782Z" fill="#00265D"/>
<path d="M11.0365 28.5132C12.1433 28.9363 13.3114 29.2344 14.5202 29.4C13.6451 16.1974 21.688 9.98807 26.8552 8.04155C23.0655 9.00745 20.0138 11.1913 17.368 14.2804C16.7989 13.5408 16.4466 12.803 16.2612 12.0836C12.9183 16.1864 11.0773 22.8778 11.0365 28.5132Z" fill="#00265D"/>
</g>
</svg>
