<svg width="20" height="20" viewBox="0 0 20 20" fill="none" xmlns="http://www.w3.org/2000/svg">
<path d="M8.21847 19.1172L7.38727 14.9628C8.54566 14.102 9.54563 13.1349 10.0912 12.5901L10.6768 12.0045L15.4184 19.1172L16.6184 17.9172L14.2472 8.43411L18.4911 4.19015C19.1943 3.48696 19.1943 2.34777 18.4911 1.64458C17.7879 0.941389 16.6488 0.941389 15.9456 1.64458L11.7016 5.88853L2.21854 3.51736L1.01855 4.71735L8.13125 9.45889L7.54567 10.0445C7.00088 10.5893 6.03369 11.5901 5.1721 12.7477L1.01855 11.9173V14.3172C1.01855 14.3172 3.73452 15.2228 3.73372 15.222C3.53612 15.7348 3.41853 16.2404 3.41853 16.7172C3.89532 16.7172 4.40009 16.5996 4.91289 16.4012L5.8185 19.1172H8.21847Z" stroke="#CCEDEB" stroke-width="1.5" stroke-linecap="round" stroke-linejoin="round"/>
</svg>
