<svg width="88" height="45" viewBox="0 0 88 45" fill="none" xmlns="http://www.w3.org/2000/svg">
<path fill-rule="evenodd" clip-rule="evenodd" d="M1.42139 44.6962C1.8356 44.6962 2.17139 44.3604 2.17139 43.9462C2.17139 43.261 2.18822 42.5766 2.22177 41.8937C2.24209 41.48 1.92319 41.1282 1.50947 41.1078C1.09576 41.0875 0.7439 41.4064 0.723576 41.8201C0.688824 42.5275 0.671387 43.2364 0.671387 43.9462C0.671387 44.3604 1.00717 44.6962 1.42139 44.6962ZM86.5786 44.6962C86.9928 44.6962 87.3286 44.3604 87.3286 43.9462C87.3286 43.2364 87.3112 42.5275 87.2764 41.8201C87.2561 41.4064 86.9042 41.0875 86.4905 41.1078C86.0768 41.1282 85.7579 41.48 85.7782 41.8937C85.8118 42.5766 85.8286 43.261 85.8286 43.9462C85.8286 44.3604 86.1644 44.6962 86.5786 44.6962ZM1.77219 38.4405C2.18192 38.5012 2.56334 38.2184 2.62412 37.8086C2.82501 36.4543 3.09227 35.1107 3.42494 33.7826C3.52558 33.3808 3.28145 32.9735 2.87965 32.8729C2.47785 32.7722 2.07053 33.0164 1.96989 33.4182C1.62529 34.7939 1.34845 36.1857 1.14035 37.5885C1.07957 37.9983 1.36246 38.3797 1.77219 38.4405ZM86.2278 38.4405C86.6375 38.3797 86.9204 37.9983 86.8596 37.5885C86.6516 36.1857 86.3747 34.7939 86.0301 33.4182C85.9295 33.0164 85.5222 32.7722 85.1204 32.8729C84.7186 32.9735 84.4744 33.3808 84.5751 33.7826C84.9077 35.1107 85.175 36.4543 85.3759 37.8086C85.4367 38.2184 85.8181 38.5012 86.2278 38.4405ZM3.65769 30.308C4.04769 30.4476 4.47697 30.2445 4.61651 29.8545C4.84686 29.2108 5.09319 28.5721 5.3554 27.939C5.61761 27.306 5.89505 26.6802 6.18738 26.0621C6.36448 25.6877 6.2045 25.2406 5.83005 25.0635C5.45561 24.8864 5.00849 25.0463 4.83139 25.4208C4.52858 26.061 4.24119 26.7093 3.96958 27.365C3.69797 28.0207 3.4428 28.6823 3.2042 29.3492C3.06465 29.7392 3.26769 30.1685 3.65769 30.308ZM84.3423 30.308C84.7323 30.1685 84.9353 29.7392 84.7958 29.3492C84.5572 28.6823 84.302 28.0207 84.0304 27.365C83.7588 26.7093 83.4714 26.061 83.1686 25.4208C82.9915 25.0463 82.5444 24.8864 82.1699 25.0635C81.7955 25.2406 81.6355 25.6877 81.8126 26.0621C82.1049 26.6802 82.3824 27.306 82.6446 27.939C82.9068 28.5721 83.1531 29.2108 83.3835 29.8545C83.523 30.2445 83.9523 30.4476 84.3423 30.308ZM7.09353 22.6997C7.44881 22.9126 7.90945 22.7972 8.1224 22.442C8.82626 21.2676 9.58737 20.1286 10.4029 19.0289C10.6497 18.6962 10.58 18.2265 10.2473 17.9797C9.91461 17.733 9.44488 17.8026 9.19813 18.1353C8.35331 19.2745 7.56491 20.4544 6.83581 21.6708C6.62286 22.0261 6.73824 22.4867 7.09353 22.6997ZM80.9065 22.6997C81.2618 22.4867 81.3771 22.0261 81.1642 21.6708C80.4351 20.4544 79.6467 19.2745 78.8019 18.1353C78.5551 17.8026 78.0854 17.733 77.7527 17.9797C77.42 18.2265 77.3503 18.6962 77.5971 19.0289C78.4126 20.1286 79.1737 21.2676 79.8776 22.442C80.0905 22.7972 80.5512 22.9126 80.9065 22.6997ZM11.9477 15.9078C12.2546 16.186 12.7289 16.1627 13.007 15.8558C13.4662 15.3492 13.9382 14.8534 14.4227 14.3689C14.9072 13.8844 15.403 13.4124 15.9096 12.9532C16.2165 12.675 16.2398 12.2007 15.9617 11.8938C15.6835 11.5869 15.2092 11.5636 14.9023 11.8418C14.3775 12.3174 13.8639 12.8063 13.362 13.3082C12.8602 13.8101 12.3712 14.3237 11.8956 14.8484C11.6174 15.1554 11.6407 15.6297 11.9477 15.9078ZM76.0523 15.9078C76.3593 15.6297 76.3826 15.1554 76.1044 14.8484C75.6288 14.3237 75.1398 13.8101 74.638 13.3082C74.1361 12.8063 73.6225 12.3174 73.0977 11.8418C72.7908 11.5636 72.3165 11.5869 72.0383 11.8938C71.7602 12.2007 71.7835 12.675 72.0904 12.9532C72.597 13.4124 73.0928 13.8844 73.5773 14.3689C74.0618 14.8534 74.5338 15.3492 74.993 15.8558C75.2711 16.1627 75.7454 16.186 76.0523 15.9078ZM18.0335 10.1935C18.2803 10.5262 18.75 10.5959 19.0827 10.3491C20.1824 9.53353 21.3215 8.77243 22.4958 8.06856C22.8511 7.85562 22.9665 7.39497 22.7535 7.03969C22.5406 6.68441 22.0799 6.56902 21.7246 6.78197C20.5082 7.51107 19.3283 8.29947 18.1892 9.14429C17.8565 9.39104 17.7868 9.86077 18.0335 10.1935ZM69.9665 10.1935C70.2132 9.86077 70.1435 9.39104 69.8108 9.14429C68.6717 8.29947 67.4918 7.51107 66.2754 6.78197C65.9201 6.56902 65.4594 6.68441 65.2465 7.03969C65.0335 7.39497 65.1489 7.85562 65.5042 8.06856C66.6785 8.77243 67.8176 9.53353 68.9173 10.3491C69.25 10.5959 69.7197 10.5262 69.9665 10.1935ZM25.1173 5.77622C25.2944 6.15066 25.7415 6.31064 26.116 6.13354C26.734 5.84121 27.3599 5.56377 27.9929 5.30156C28.6259 5.03936 29.2646 4.79302 29.9084 4.56268C30.2984 4.42314 30.5014 3.99385 30.3619 3.60386C30.2223 3.21386 29.793 3.01081 29.403 3.15036C28.7362 3.38897 28.0746 3.64413 27.4189 3.91574C26.7631 4.18736 26.1149 4.47474 25.4746 4.77756C25.1002 4.95465 24.9402 5.40178 25.1173 5.77622ZM62.8827 5.77622C63.0598 5.40178 62.8998 4.95465 62.5254 4.77756C61.8851 4.47474 61.2369 4.18735 60.5811 3.91574C59.9254 3.64413 59.2638 3.38897 58.597 3.15036C58.207 3.01081 57.7777 3.21386 57.6381 3.60386C57.4986 3.99385 57.7016 4.42313 58.0916 4.56268C58.7354 4.79302 59.3741 5.03936 60.0071 5.30156C60.6401 5.56377 61.266 5.84121 61.884 6.13354C62.2585 6.31064 62.7056 6.15066 62.8827 5.77622ZM32.9267 2.82581C33.0274 3.22761 33.4347 3.47174 33.8365 3.3711C35.1646 3.03843 36.5082 2.77118 37.8625 2.57028C38.2722 2.5095 38.5551 2.12808 38.4943 1.71835C38.4335 1.30862 38.0521 1.02574 37.6424 1.08651C36.2395 1.29461 34.8477 1.57146 33.472 1.91605C33.0702 2.0167 32.8261 2.42401 32.9267 2.82581ZM55.0733 2.82581C55.1739 2.42401 54.9298 2.0167 54.528 1.91605C53.1523 1.57146 51.7605 1.29461 50.3576 1.08651C49.9479 1.02574 49.5665 1.30862 49.5057 1.71835C49.4449 2.12808 49.7278 2.5095 50.1375 2.57028C51.4918 2.77118 52.8354 3.03843 54.1635 3.3711C54.5653 3.47174 54.9726 3.22761 55.0733 2.82581ZM41.1617 1.45564C41.182 1.86935 41.5339 2.18826 41.9476 2.16793C42.6305 2.13438 43.3148 2.11755 44 2.11755C44.6852 2.11755 45.3695 2.13438 46.0524 2.16793C46.4661 2.18826 46.818 1.86935 46.8383 1.45564C46.8587 1.04192 46.5397 0.69006 46.126 0.669743C45.4186 0.634991 44.7098 0.61755 44 0.61755C43.2902 0.61755 42.5814 0.634991 41.874 0.669743C41.4603 0.69006 41.1413 1.04192 41.1617 1.45564Z" fill="#141414"/>
<path d="M54.78 24.0444C53.2471 24.7284 50.8652 26.049 48.1766 27.582L35.3001 25.7896C34.5775 25.6854 33.841 25.7369 33.1399 25.9405L30.3452 26.733C30.1094 26.733 30.1094 26.9688 30.3452 27.0631L41.0993 31.7798C37.4674 33.9495 34.2365 35.9305 32.8215 36.8266C32.569 36.9852 32.2846 37.0861 31.9886 37.122C31.6926 37.1578 31.3924 37.1279 31.1093 37.0342L28.2935 36.1427C27.8463 35.9833 27.3575 35.9849 26.9115 36.1474L25.1333 36.8738L31.0763 41.8263C31.3751 42.077 31.7385 42.2382 32.1248 42.2916C32.5111 42.345 32.9046 42.2884 33.2601 42.1282C36.0996 40.8594 43.5755 37.4162 49.1412 34.5155C61.4989 27.9593 62.8667 26.8273 62.8667 25.7896C62.8667 24.1624 58.1524 22.4879 54.78 24.0444Z" fill="#606161"/>
</svg>
