<svg width="1250" height="479" viewBox="0 0 1250 479" fill="none" xmlns="http://www.w3.org/2000/svg">
<g filter="url(#filter0_b_6802_7109)">
<path d="M979.598 0C979.598 13.2548 968.853 24 955.598 24C942.343 24 931.598 13.2548 931.598 0L18 8.98838e-05C8.05887 8.98838e-05 0 8.05896 0 18.0001L0 460.1C0 470.041 8.0589 478.1 18 478.1L931.598 478.1C931.598 464.845 942.343 454.1 955.598 454.1C968.853 454.1 979.598 464.845 979.598 478.1H1231.73C1241.68 478.1 1249.73 470.041 1249.73 460.1V18C1249.73 8.05887 1241.68 0 1231.73 0H979.598Z" fill="url(#paint0_linear_6802_7109)" fill-opacity="0.1"/>
<path d="M955.598 24.5C968.962 24.5 979.827 13.8002 980.093 0.5H1231.73C1241.4 0.5 1249.23 8.33501 1249.23 18V460.1C1249.23 469.765 1241.4 477.6 1231.73 477.6H980.093C979.827 464.3 968.962 453.6 955.598 453.6C942.234 453.6 931.369 464.3 931.103 477.6L18 477.6C8.33504 477.6 0.5 469.765 0.5 460.1V18.0001C0.5 8.3351 8.33501 0.50009 18 0.50009L931.103 0.5C931.369 13.8002 942.234 24.5 955.598 24.5Z" stroke="#EDEDED"/>
</g>
<mask id="mask0_6802_7109" style="mask-type:alpha" maskUnits="userSpaceOnUse" x="0" y="0" width="1250" height="479">
<path d="M955.598 25C968.962 25 979.827 14.3002 980.093 1H1231.73C1241.4 1 1249.23 8.83501 1249.23 18.5V460.1C1249.23 469.765 1241.4 477.6 1231.73 477.6H980.093C979.827 464.3 968.962 453.6 955.598 453.6C942.234 453.6 931.369 464.3 931.103 477.6L18 477.6C8.33504 477.6 0.5 469.765 0.5 460.1V18.5001C0.5 8.8351 8.33501 1.00009 18 1.00009L931.103 1C931.369 14.3002 942.234 25 955.598 25Z" fill="url(#paint1_linear_6802_7109)" fill-opacity="0.3" stroke="#EDEDED"/>
</mask>
<g mask="url(#mask0_6802_7109)">
<rect x="956" y="0.5" width="294" height="478" fill="white" fill-opacity="0.2" stroke="white" stroke-dasharray="6 6"/>
</g>
<defs>
<filter id="filter0_b_6802_7109" x="-24" y="-24" width="1297.73" height="526.1" filterUnits="userSpaceOnUse" color-interpolation-filters="sRGB">
<feFlood flood-opacity="0" result="BackgroundImageFix"/>
<feGaussianBlur in="BackgroundImageFix" stdDeviation="12"/>
<feComposite in2="SourceAlpha" operator="in" result="effect1_backgroundBlur_6802_7109"/>
<feBlend mode="normal" in="SourceGraphic" in2="effect1_backgroundBlur_6802_7109" result="shape"/>
</filter>
<linearGradient id="paint0_linear_6802_7109" x1="1249.73" y1="130.752" x2="0.000252066" y2="138.348" gradientUnits="userSpaceOnUse">
<stop stop-color="white" stop-opacity="0.57"/>
<stop offset="1" stop-color="white" stop-opacity="0.65"/>
</linearGradient>
<linearGradient id="paint1_linear_6802_7109" x1="1249.74" y1="130.752" x2="0.000413773" y2="138.348" gradientUnits="userSpaceOnUse">
<stop stop-color="white" stop-opacity="0.57"/>
<stop offset="1" stop-color="white" stop-opacity="0.65"/>
</linearGradient>
</defs>
</svg>
