<svg width="25" height="25" viewBox="0 0 25 25" fill="none" xmlns="http://www.w3.org/2000/svg">
<path opacity="0.4" fill-rule="evenodd" clip-rule="evenodd" d="M10.4281 15.5747H9.67807H8.55157C7.36446 15.5747 6.23867 16.102 5.47869 17.014L4.41172 18.2943C3.32617 19.597 4.25248 21.5747 5.94816 21.5747H19.408C21.1037 21.5747 22.03 19.597 20.9444 18.2943L19.8775 17.014C19.1175 16.102 17.9917 15.5747 16.8046 15.5747H14.9281V16.5747C14.9281 17.8173 13.9207 18.8247 12.6781 18.8247C11.4354 18.8247 10.4281 17.8173 10.4281 16.5747V15.5747Z" fill="#00A79D"/>
<path fill-rule="evenodd" clip-rule="evenodd" d="M13.4277 7.42933C14.1607 7.13263 14.6777 6.41405 14.6777 5.57471C14.6777 4.47014 13.7823 3.57471 12.6777 3.57471C11.5732 3.57471 10.6777 4.47014 10.6777 5.57471C10.6777 6.41405 11.1948 7.13263 11.9277 7.42933V16.5747C11.9277 16.9889 12.2635 17.3247 12.6777 17.3247C13.0919 17.3247 13.4277 16.9889 13.4277 16.5747V7.42933Z" fill="#00A79D"/>
</svg>
