<svg width="20" height="21" viewBox="0 0 20 21" fill="none" xmlns="http://www.w3.org/2000/svg">
<path d="M5.8913 5.78654C4.52321 6.19795 3.0634 7.20194 2.26842 7.80304C1.87944 8.09716 1.66663 8.56108 1.66663 9.04874V17.1066C1.66663 17.8178 2.52321 18.2302 3.11352 17.8335C4.12142 17.1562 5.49053 16.3871 6.66663 16.2555C9.43188 15.9459 10.568 19.2234 13.3333 18.9139C14.8894 18.7397 16.7833 17.4496 17.7315 16.7327C18.1205 16.4386 18.3333 15.9746 18.3333 15.487V7.42913C18.3333 6.71792 17.4767 6.3055 16.8864 6.70219C16.0154 7.2875 14.8746 7.94138 13.8218 8.19316" stroke="#606161" stroke-width="1.5"/>
<path d="M14.1666 6.26787C14.1666 8.47701 12.0833 12.2679 9.99992 12.2679C7.91659 12.2679 5.83325 8.47701 5.83325 6.26787C5.83325 4.05873 7.69873 2.26787 9.99992 2.26787C12.3011 2.26787 14.1666 4.05873 14.1666 6.26787Z" stroke="#606161" stroke-width="1.5"/>
<path d="M11.2499 6.01787C11.2499 6.70822 10.6903 7.26787 9.99992 7.26787C9.30956 7.26787 8.74992 6.70822 8.74992 6.01787C8.74992 5.32751 9.30956 4.76787 9.99992 4.76787C10.6903 4.76787 11.2499 5.32751 11.2499 6.01787Z" stroke="#606161" stroke-width="1.5"/>
</svg>
