<svg width="25" height="25" viewBox="0 0 25 25" fill="none" xmlns="http://www.w3.org/2000/svg">
<mask id="mask0_8359_43605" style="mask-type:alpha" maskUnits="userSpaceOnUse" x="0" y="0" width="25" height="25">
<rect x="0.177734" y="0.943604" width="24" height="24" fill="#D9D9D9"/>
</mask>
<g mask="url(#mask0_8359_43605)">
<path d="M12.1777 11.9436C11.6277 11.9436 11.1569 11.7478 10.7652 11.3561C10.3736 10.9644 10.1777 10.4936 10.1777 9.9436C10.1777 9.3936 10.3736 8.92277 10.7652 8.5311C11.1569 8.13944 11.6277 7.9436 12.1777 7.9436C12.7277 7.9436 13.1986 8.13944 13.5902 8.5311C13.9819 8.92277 14.1777 9.3936 14.1777 9.9436C14.1777 10.4936 13.9819 10.9644 13.5902 11.3561C13.1986 11.7478 12.7277 11.9436 12.1777 11.9436ZM7.17773 22.9436C7.17773 22.3936 7.37357 21.9228 7.76523 21.5311C8.1569 21.1394 8.62773 20.9436 9.17773 20.9436H11.1777C11.1777 19.8936 10.9236 18.9186 10.4152 18.0186C9.9069 17.1186 9.21107 16.3769 8.32773 15.7936C7.32773 15.1436 6.55273 14.3019 6.00273 13.2686C5.45273 12.2353 5.17773 11.1269 5.17773 9.9436C5.17773 7.9936 5.8569 6.33944 7.21523 4.9811C8.57357 3.62277 10.2277 2.9436 12.1777 2.9436C14.1277 2.9436 15.7819 3.62277 17.1402 4.9811C18.4986 6.33944 19.1777 7.9936 19.1777 9.9436C19.1777 11.1436 18.8944 12.2603 18.3277 13.2936C17.7611 14.3269 16.9777 15.1686 15.9777 15.8186C15.0944 16.3853 14.4069 17.1186 13.9152 18.0186C13.4236 18.9186 13.1777 19.8936 13.1777 20.9436H15.1777C15.7277 20.9436 16.1986 21.1394 16.5902 21.5311C16.9819 21.9228 17.1777 22.3936 17.1777 22.9436H7.17773ZM12.1777 14.9436C13.5611 14.9436 14.7402 14.4561 15.7152 13.4811C16.6902 12.5061 17.1777 11.3269 17.1777 9.9436C17.1777 8.56027 16.6902 7.3811 15.7152 6.4061C14.7402 5.4311 13.5611 4.9436 12.1777 4.9436C10.7944 4.9436 9.61523 5.4311 8.64023 6.4061C7.66523 7.3811 7.17773 8.56027 7.17773 9.9436C7.17773 11.3269 7.66523 12.5061 8.64023 13.4811C9.61523 14.4561 10.7944 14.9436 12.1777 14.9436Z" fill="#5C1D16"/>
</g>
</svg>
