<svg width="25" height="24" viewBox="0 0 25 24" fill="none" xmlns="http://www.w3.org/2000/svg">
<path d="M11.5591 4.06949C8.75076 4.49348 6.50476 6.81294 6.16706 9.79403L5.82219 12.8385C5.73649 13.595 5.42989 14.3069 4.94292 14.88C3.90951 16.0964 4.74824 18 6.31756 18H18.6573C20.2266 18 21.0653 16.0964 20.0319 14.88C19.545 14.3069 19.2384 13.595 19.1527 12.8385L18.9248 10.8267M15.4874 20C15.0507 21.1652 13.8725 22 12.4874 22C11.1024 22 9.92411 21.1652 9.48743 20M20.4874 5C20.4874 6.65685 19.1443 8 17.4874 8C15.8306 8 14.4874 6.65685 14.4874 5C14.4874 3.34315 15.8306 2 17.4874 2C19.1443 2 20.4874 3.34315 20.4874 5Z" stroke="#00A79D" stroke-width="1.5" stroke-linecap="square"/>
</svg>
