<svg width="65" height="64" viewBox="0 0 65 64" fill="none" xmlns="http://www.w3.org/2000/svg">
<rect x="0.487457" width="64" height="64" rx="32" fill="#C7B9DA"/>
<rect x="0.487457" width="64" height="64" rx="32" fill="#00A79D"/>
<path d="M40.2943 45.8429L37.1499 41.5684C36.7128 40.9741 36.4795 40.2759 36.4795 39.5616V35.2302C36.4795 34.2312 37.3731 33.4213 38.4755 33.4213H45.4879C47.4933 33.4213 48.2463 31.0416 46.5458 30.0784L38.3557 25.4394C37.1885 24.7783 36.4795 23.6189 36.4795 22.3715V18.332C36.4795 16.6752 35.1363 15.332 33.4795 15.332H31.4954C29.8386 15.332 28.4954 16.6752 28.4954 18.332V22.3715C28.4954 23.6189 27.7864 24.7783 26.6192 25.4394L18.4291 30.0784C16.7286 31.0416 17.4816 33.4213 19.487 33.4213H26.4994C27.6018 33.4213 28.4954 34.2312 28.4954 35.2302V39.5616C28.4954 40.2759 28.2621 40.9741 27.825 41.5684L24.6806 45.8429C23.5452 47.3864 25.4032 49.2939 27.234 48.4643L30.7022 46.8928C31.826 46.3835 33.1489 46.3835 34.2727 46.8928L37.7409 48.4643C39.5717 49.2939 41.4297 47.3864 40.2943 45.8429Z" stroke="white" stroke-width="1.5"/>
</svg>
