<svg width="25" height="25" viewBox="0 0 25 25" fill="none" xmlns="http://www.w3.org/2000/svg">
<path opacity="0.5" d="M13.617 5.3536C14.1005 3.65242 15.6182 2.58654 17.0017 2.9783C17.6864 3.17595 18.2299 3.68772 18.5335 4.42536C18.8264 5.13478 18.8582 5.97125 18.6288 6.77948C18.2123 8.24419 17.0335 9.23595 15.8299 9.23595C15.6358 9.23595 15.4382 9.20772 15.2441 9.15478C13.8641 8.75948 13.1335 7.0583 13.617 5.3536ZM23.5946 11.2583C23.3793 12.0136 22.9417 12.663 22.3593 13.083C21.9288 13.3971 21.4523 13.5595 20.9829 13.5595C20.7923 13.5595 20.6052 13.5312 20.4217 13.4783C19.7793 13.2983 19.2676 12.8148 18.9817 12.123C18.7099 11.4595 18.6782 10.6795 18.8935 9.92066C19.3452 8.32536 20.7676 7.33007 22.0664 7.69713C22.7088 7.88066 23.2205 8.36419 23.5064 9.05595C23.7782 9.71948 23.8099 10.4995 23.5946 11.2583ZM6.25464 6.77948C6.02523 5.97125 6.057 5.13478 6.34994 4.42536C6.65347 3.68772 7.197 3.17595 7.8817 2.9783C9.26523 2.58654 10.7829 3.65242 11.2664 5.3536C11.7499 7.0583 11.0193 8.75948 9.63935 9.15478C9.44523 9.20772 9.24758 9.23595 9.05347 9.23595C7.84994 9.23595 6.67111 8.24419 6.25464 6.77948ZM4.4617 13.4783C4.27817 13.5312 4.09111 13.5595 3.90053 13.5595C3.43111 13.5595 2.95464 13.3971 2.52405 13.083C1.9417 12.663 1.50405 12.0136 1.28876 11.2583C1.07347 10.4995 1.10523 9.71948 1.377 9.05595C1.66288 8.36419 2.17464 7.88066 2.817 7.69713C4.11582 7.33007 5.53817 8.32536 5.98994 9.92066C6.20523 10.6795 6.17347 11.4595 5.9017 12.123C5.61582 12.8148 5.10405 13.2983 4.4617 13.4783Z" fill="#00A79D"/>
<path d="M20.8594 17.7383C21.1559 19.2559 20.7818 20.6042 19.8288 21.4371C19.2147 21.9771 18.4171 22.2524 17.5347 22.2524C17.03 22.2524 16.4935 22.1606 15.95 21.9771C14.8877 21.6206 13.7406 21.4442 12.4418 21.4442C11.1429 21.4442 9.99589 21.6206 8.93353 21.9771C7.43706 22.4818 6.02177 22.2877 5.05471 21.4371C4.10177 20.6042 3.72765 19.2559 4.02412 17.7383C4.52177 15.2112 7.14765 12.7795 9.2653 11.1842C10.1759 10.5347 11.1394 10.1818 12.1488 10.1253V10.1147H12.4418C12.4453 10.1147 12.4453 10.1147 12.4488 10.1147H12.5829C12.6641 10.1183 12.7277 10.1147 12.7382 10.1147V10.1253C13.7829 10.1853 14.7747 10.5489 15.6182 11.1842C17.7359 12.7795 20.3618 15.2112 20.8594 17.7383Z" fill="#00A79D"/>
</svg>
