<svg width="25" height="25" viewBox="0 0 25 25" fill="none" xmlns="http://www.w3.org/2000/svg">
<path d="M17.4424 6.57471H7.44238C6.33781 6.57471 5.44238 5.67928 5.44238 4.57471C5.44238 3.47014 6.33781 2.57471 7.44238 2.57471H17.4424C18.547 2.57471 19.4424 3.47014 19.4424 4.57471C19.4424 5.67928 18.547 6.57471 17.4424 6.57471Z" fill="#00A79D"/>
<path opacity="0.4" d="M17.4504 6.57471H7.43436L5.72033 11.9029C5.22344 13.1576 5.39946 14.5558 6.19477 15.6715L11.4905 22.1007C11.941 22.7327 12.9438 22.7327 13.3942 22.1007L18.69 15.6715C19.4853 14.5558 19.6613 13.1576 19.1644 11.9029L17.4504 6.57471Z" fill="#00A79D"/>
<path d="M13.1924 14.4293C13.9253 14.1326 14.4424 13.4141 14.4424 12.5747C14.4424 11.4701 13.547 10.5747 12.4424 10.5747C11.3378 10.5747 10.4424 11.4701 10.4424 12.5747C10.4424 13.4141 10.9594 14.1326 11.6924 14.4293V22.3157C12.118 22.6611 12.7668 22.6611 13.1924 22.3157V14.4293Z" fill="#00A79D"/>
</svg>
