<svg width="20" height="20" viewBox="0 0 20 20" fill="none" xmlns="http://www.w3.org/2000/svg">
<path d="M8.19992 19L7.36872 14.8456C8.52711 13.9849 9.52708 13.0177 10.0727 12.4729L10.6583 11.8873L15.3998 19L16.5998 17.8L14.2286 8.31692L18.4726 4.07297C19.1758 3.36977 19.1758 2.23059 18.4726 1.52739C17.7694 0.824202 16.6302 0.824202 15.927 1.52739L11.6831 5.77135L2.19999 3.40017L1 4.60016L8.11269 9.34171L7.52712 9.9273C6.98232 10.4721 6.01514 11.4729 5.15355 12.6305L1 11.8001V14.2001C1 14.2001 3.71597 15.1056 3.71517 15.1048C3.51757 15.6176 3.39997 16.1232 3.39997 16.6C3.87677 16.6 4.38154 16.4824 4.89433 16.284L5.79995 19H8.19992Z" stroke="white" stroke-width="1.5" stroke-linecap="round" stroke-linejoin="round"/>
</svg>
