<svg width="20" height="21" viewBox="0 0 20 21" fill="none" xmlns="http://www.w3.org/2000/svg">
<path opacity="0.4" d="M4 0.712891H16C18.2091 0.712891 20 2.50375 20 4.71289V16.7129C20 18.922 18.2091 20.7129 16 20.7129H4C1.79086 20.7129 0 18.922 0 16.7129V4.71289C0 2.50375 1.79086 0.712891 4 0.712891Z" fill="#00A79D"/>
<path fill-rule="evenodd" clip-rule="evenodd" d="M13.3591 8.41461C13.652 8.12171 13.652 7.64684 13.3591 7.35395C13.0662 7.06105 12.5913 7.06105 12.2984 7.35395L10.0003 9.65205L7.70221 7.35396C7.40932 7.06107 6.93445 7.06107 6.64155 7.35396C6.34866 7.64686 6.34866 8.12173 6.64155 8.41462L8.93964 10.7127L6.64155 13.0108C6.34865 13.3037 6.34865 13.7786 6.64155 14.0715C6.93444 14.3644 7.40931 14.3644 7.70221 14.0715L10.0003 11.7734L12.2984 14.0715C12.5913 14.3644 13.0662 14.3644 13.3591 14.0715C13.652 13.7786 13.652 13.3037 13.3591 13.0108L11.061 10.7127L13.3591 8.41461Z" fill="#00A79D"/>
</svg>
