<svg width="22" height="23" viewBox="0 0 22 23" fill="none" xmlns="http://www.w3.org/2000/svg">
<path fill-rule="evenodd" clip-rule="evenodd" d="M19.2871 11C19.2871 15.8325 15.3696 19.75 10.5371 19.75C5.70462 19.75 1.78711 15.8325 1.78711 11C1.78711 6.16751 5.70462 2.25 10.5371 2.25C15.3696 2.25 19.2871 6.16751 19.2871 11ZM10.5371 21.25C16.198 21.25 20.7871 16.6609 20.7871 11C20.7871 5.33908 16.198 0.75 10.5371 0.75C4.87619 0.75 0.287109 5.33908 0.287109 11C0.287109 16.6609 4.87619 21.25 10.5371 21.25ZM19.5674 18.9697C19.2745 18.6768 18.7997 18.6768 18.5068 18.9697C18.2139 19.2626 18.2139 19.7374 18.5068 20.0303L20.5068 22.0303C20.7997 22.3232 21.2745 22.3232 21.5674 22.0303C21.8603 21.7374 21.8603 21.2625 21.5674 20.9696L19.5674 18.9697Z" fill="#00A79D"/>
</svg>
