<svg width="21" height="20" viewBox="0 0 21 20" fill="none" xmlns="http://www.w3.org/2000/svg">
<path fill-rule="evenodd" clip-rule="evenodd" d="M16.9219 9.58464C16.9219 13.6117 13.6573 16.8763 9.63021 16.8763C5.60314 16.8763 2.33855 13.6117 2.33855 9.58464C2.33855 5.55756 5.60314 2.29297 9.63021 2.29297C13.6573 2.29297 16.9219 5.55756 16.9219 9.58464ZM9.63021 18.1263C14.3476 18.1263 18.1719 14.3021 18.1719 9.58464C18.1719 4.8672 14.3476 1.04297 9.63021 1.04297C4.91278 1.04297 1.08855 4.8672 1.08855 9.58464C1.08855 14.3021 4.91278 18.1263 9.63021 18.1263ZM17.1555 16.226C16.9114 15.9819 16.5157 15.9819 16.2716 16.226C16.0275 16.4701 16.0275 16.8658 16.2716 17.1099L17.9383 18.7766C18.1823 19.0206 18.5781 19.0206 18.8221 18.7766C19.0662 18.5325 19.0662 18.1368 18.8221 17.8927L17.1555 16.226Z" fill="white"/>
</svg>
