<svg width="16" height="21" viewBox="0 0 16 21" fill="none" xmlns="http://www.w3.org/2000/svg">
<path d="M13.7651 7.33268H13.4652V5.06446C13.4663 4.42724 13.3488 3.79603 13.1194 3.20692C12.89 2.61781 12.5532 2.08234 12.1282 1.63112C11.7033 1.17991 11.1985 0.821793 10.6428 0.577252C10.087 0.33271 9.49123 0.206536 8.88941 0.205941H6.91001C6.30876 0.204749 5.71317 0.329036 5.15731 0.571698C4.60144 0.81436 4.09619 1.17064 3.67044 1.62017C3.24469 2.0697 2.90679 2.60366 2.67605 3.19154C2.44531 3.77942 2.32626 4.40969 2.32569 5.04632V7.31453H1.76872C1.42783 7.31453 1.10091 7.45792 0.859861 7.71314C0.618816 7.96837 0.483398 8.31452 0.483398 8.67546V13.8924C0.483398 14.2533 0.618816 14.5995 0.859861 14.8547C1.10091 15.1099 1.42783 15.2533 1.76872 15.2533H2.19716V15.7069C2.19716 16.0679 2.33258 16.414 2.57362 16.6693C2.81467 16.9245 3.1416 17.0679 3.48249 17.0679H7.33845V18.4016H5.19625C4.85536 18.4016 4.52843 18.545 4.28739 18.8002C4.04634 19.0554 3.91093 19.4016 3.91093 19.7625V20.2162C3.91093 20.3365 3.95607 20.4519 4.03641 20.5369C4.11676 20.622 4.22574 20.6698 4.33937 20.6698H11.1944C11.3081 20.6698 11.417 20.622 11.4974 20.5369C11.5777 20.4519 11.6229 20.3365 11.6229 20.2162V19.7625C11.6229 19.4016 11.4874 19.0554 11.2464 18.8002C11.0054 18.545 10.6784 18.4016 10.3375 18.4016H8.19534V17.0679H12.0513C12.3922 17.0679 12.7191 16.9245 12.9602 16.6693C13.2012 16.414 13.3366 16.0679 13.3366 15.7069V15.2533H13.7651C14.106 15.2533 14.4329 15.1099 14.6739 14.8547C14.915 14.5995 15.0504 14.2533 15.0504 13.8924V8.69361C15.0504 8.33267 14.915 7.98651 14.6739 7.73129C14.4329 7.47606 14.106 7.33268 13.7651 7.33268ZM10.3375 19.3089C10.4512 19.3089 10.5601 19.3567 10.6405 19.4417C10.7208 19.5268 10.766 19.6422 10.766 19.7625H4.76781C4.76781 19.6422 4.81295 19.5268 4.8933 19.4417C4.97364 19.3567 5.08262 19.3089 5.19625 19.3089H10.3375ZM3.18258 5.04632C3.18485 4.00158 3.5787 3.00052 4.2776 2.26305C4.97651 1.52558 5.92331 1.11202 6.91001 1.11323H8.90226C9.88713 1.11562 10.8311 1.53062 11.5279 2.26757C12.2247 3.00452 12.6177 4.00352 12.6211 5.04632V7.31453H12.0513C11.7104 7.31453 11.3835 7.45792 11.1424 7.71314C10.9014 7.96837 10.766 8.31452 10.766 8.67546V12.5133H4.76781V8.69361C4.76781 8.33267 4.63239 7.98651 4.39135 7.73129C4.1503 7.47606 3.82337 7.33268 3.48249 7.33268H3.18258V5.04632ZM2.19716 13.8924V14.346H1.76872C1.65509 14.346 1.54612 14.2982 1.46577 14.2131C1.38542 14.1281 1.34028 14.0127 1.34028 13.8924V8.69361C1.34028 8.5733 1.38542 8.45791 1.46577 8.37284C1.54612 8.28776 1.65509 8.23997 1.76872 8.23997H3.48249C3.59611 8.23997 3.70509 8.28776 3.78544 8.37284C3.86579 8.45791 3.91093 8.5733 3.91093 8.69361V12.5314H3.48249C3.1416 12.5314 2.81467 12.6748 2.57362 12.93C2.33258 13.1853 2.19716 13.5314 2.19716 13.8924ZM12.4797 15.7069C12.4797 15.8273 12.4346 15.9426 12.3543 16.0277C12.2739 16.1128 12.1649 16.1606 12.0513 16.1606H3.48249C3.36886 16.1606 3.25988 16.1128 3.17953 16.0277C3.09918 15.9426 3.05404 15.8273 3.05404 15.7069V13.8924C3.05404 13.7721 3.09918 13.6567 3.17953 13.5716C3.25988 13.4865 3.36886 13.4387 3.48249 13.4387H12.0513C12.1649 13.4387 12.2739 13.4865 12.3543 13.5716C12.4346 13.6567 12.4797 13.7721 12.4797 13.8924V15.7069ZM14.1935 13.8924C14.1935 14.0127 14.1484 14.1281 14.068 14.2131C13.9877 14.2982 13.8787 14.346 13.7651 14.346H13.3366V13.8924C13.3357 13.5917 13.2408 13.2997 13.0667 13.0622C12.947 12.8975 12.7932 12.764 12.6172 12.672C12.4412 12.58 12.2476 12.5319 12.0513 12.5314H11.6229V8.69361C11.6229 8.5733 11.668 8.45791 11.7484 8.37284C11.8287 8.28776 11.9377 8.23997 12.0513 8.23997H13.7651C13.8787 8.23997 13.9877 8.28776 14.068 8.37284C14.1484 8.45791 14.1935 8.5733 14.1935 8.69361V13.8924Z" fill="#00A79D" stroke="#00A79D" stroke-width="0.2"/>
<path d="M5.67161 5.44113C5.55798 5.44113 5.449 5.39334 5.36865 5.30826C5.2883 5.22319 5.24316 5.1078 5.24316 4.98749C5.24316 2.51513 6.88409 1.81199 7.74954 1.76208C7.86317 1.76208 7.97215 1.80988 8.0525 1.89495C8.13285 1.98003 8.17798 2.09541 8.17798 2.21573C8.17798 2.33604 8.13285 2.45143 8.0525 2.5365C7.97215 2.62158 7.86317 2.66937 7.74954 2.66937C7.57817 2.66937 6.06577 2.82361 6.06577 4.98749C6.06612 5.10177 6.02571 5.21198 5.95263 5.29609C5.87956 5.38019 5.77919 5.43199 5.67161 5.44113Z" fill="#00A79D" stroke="#00A79D" stroke-width="0.2"/>
</svg>
