<svg width="25" height="25" viewBox="0 0 25 25" fill="none" xmlns="http://www.w3.org/2000/svg">
<rect x="13.6777" y="3.63098" width="9" height="9" rx="2" stroke="#00A79D" stroke-width="1.5"/>
<path d="M19.1777 6.63098L17.1777 6.63098" stroke="#00A79D" stroke-width="1.5" stroke-linecap="round" stroke-linejoin="round"/>
<path d="M2.67773 9.63098H4.67773L10.94 12.3707C11.9018 12.7915 12.3441 13.9094 11.9306 14.8744V14.8744C11.5148 15.8445 10.3913 16.2939 9.42116 15.8782L7.67773 15.131" stroke="#00A79D" stroke-width="1.5" stroke-linecap="round" stroke-linejoin="round"/>
<path d="M3.01314 17.9602C2.64266 17.7749 2.19216 17.9251 2.00691 18.2956C1.82167 18.6661 1.97184 19.1166 2.34232 19.3018L3.01314 17.9602ZM12.0131 14.9602L11.3423 14.6248L10.6715 15.9664L11.3423 16.3018L12.0131 14.9602ZM14.4109 16.9975L14.0755 17.6684L14.4109 16.9975ZM17.0941 18.381H18.6777V16.881H17.0941V18.381ZM18.6777 20.881H10.5663V22.381H18.6777V20.881ZM7.32398 20.1156L3.01314 17.9602L2.34232 19.3018L6.65316 21.4572L7.32398 20.1156ZM14.7463 16.3267L12.0131 14.9602L11.3423 16.3018L14.0755 17.6684L14.7463 16.3267ZM10.5663 20.881C9.44075 20.881 8.33068 20.6189 7.32398 20.1156L6.65316 21.4572C7.86814 22.0647 9.20788 22.381 10.5663 22.381V20.881ZM19.9277 19.631C19.9277 20.3213 19.3681 20.881 18.6777 20.881V22.381C20.1965 22.381 21.4277 21.1498 21.4277 19.631H19.9277ZM18.6777 18.381C19.3681 18.381 19.9277 18.9406 19.9277 19.631H21.4277C21.4277 18.1122 20.1965 16.881 18.6777 16.881V18.381ZM17.0941 16.881C16.2791 16.881 15.4753 16.6912 14.7463 16.3267L14.0755 17.6684C15.0127 18.137 16.0462 18.381 17.0941 18.381V16.881Z" fill="#00A79D"/>
</svg>
