<svg width="25" height="25" viewBox="0 0 25 25" fill="none" xmlns="http://www.w3.org/2000/svg">
<mask id="mask0_8320_18058" style="mask-type:alpha" maskUnits="userSpaceOnUse" x="0" y="0" width="25" height="25">
<rect x="0.677734" y="0.574707" width="24" height="24" fill="#D9D9D9"/>
</mask>
<g mask="url(#mask0_8320_18058)">
<path d="M12.5282 22.4996C9.62821 22.0663 7.32821 20.9455 5.62821 19.1371C3.92821 17.3288 2.96155 14.8663 2.72821 11.7496C2.71155 11.5663 2.73238 11.4038 2.79071 11.2621C2.84905 11.1205 2.92821 10.9996 3.02821 10.8996C3.12821 10.7996 3.24905 10.7246 3.39071 10.6746C3.53238 10.6246 3.68655 10.6163 3.85321 10.6496C6.90321 11.0663 9.25321 12.2413 10.9032 14.1746C12.5532 16.108 13.4699 18.5246 13.6532 21.4246C13.6699 21.5746 13.649 21.7205 13.5907 21.8621C13.5324 22.0038 13.4449 22.1246 13.3282 22.2246C13.2282 22.3246 13.1074 22.4038 12.9657 22.4621C12.824 22.5205 12.6782 22.533 12.5282 22.4996ZM15.6282 21.7746C15.5949 20.758 15.4407 19.6038 15.1657 18.3121C14.8907 17.0205 14.4615 15.908 13.8782 14.9746C14.5949 13.8746 15.6574 12.9246 17.0657 12.1246C18.474 11.3246 19.9615 10.833 21.5282 10.6496C21.6949 10.6163 21.8449 10.6288 21.9782 10.6871C22.1115 10.7455 22.2282 10.8246 22.3282 10.9246C22.4282 11.0246 22.5074 11.1413 22.5657 11.2746C22.624 11.408 22.6449 11.558 22.6282 11.7246C22.4949 14.408 21.7657 16.5871 20.4407 18.2621C19.1157 19.9371 17.5115 21.108 15.6282 21.7746Z" fill="#00A79D"/>
<path opacity="0.5" d="M10.8152 11.5962C11.6569 12.3045 12.1944 12.842 12.4277 13.2087C12.6777 12.842 13.2027 12.3212 14.0027 11.6462C14.8027 10.9712 15.5277 10.4837 16.1777 10.1837C16.0611 9.33369 15.7236 8.28369 15.1652 7.03369C14.6069 5.78369 13.9527 4.63369 13.2027 3.58369C13.1027 3.43369 12.9861 3.32536 12.8527 3.25869C12.7194 3.19202 12.5777 3.15869 12.4277 3.15869C12.2777 3.15869 12.1319 3.19202 11.9902 3.25869C11.8486 3.32536 11.7277 3.42536 11.6277 3.55869C10.8777 4.59202 10.2319 5.74619 9.69023 7.02119C9.14857 8.29619 8.81107 9.35036 8.67773 10.1837C9.26107 10.417 9.97357 10.8879 10.8152 11.5962Z" fill="#00A79D"/>
</g>
</svg>
