<svg width="25" height="25" viewBox="0 0 25 25" fill="none" xmlns="http://www.w3.org/2000/svg">
<path opacity="0.4" d="M22.6777 12.5747C22.6777 15.2584 21.6206 17.6952 19.9 19.4913C18.0797 21.3915 15.5169 22.5747 12.6777 22.5747C9.83859 22.5747 7.27579 21.3915 5.45551 19.4913C3.7349 17.6952 2.67773 15.2584 2.67773 12.5747C2.67773 9.89101 3.7349 7.45422 5.45551 5.65808C7.27579 3.75789 9.83859 2.57471 12.6777 2.57471C15.5169 2.57471 18.0797 3.75789 19.9 5.65808C21.6206 7.45422 22.6777 9.89101 22.6777 12.5747Z" fill="#00A79D"/>
<path d="M13.4277 11.8247H16.8724C17.0184 9.29586 17.8976 6.96949 19.2943 5.07649C19.5042 5.26186 19.7063 5.45591 19.9 5.65808C20.0578 5.82284 20.21 5.99299 20.3564 6.16823C19.2292 7.77143 18.5132 9.71339 18.3752 11.8247H22.65C22.6684 12.0723 22.6777 12.3224 22.6777 12.5747C22.6777 12.827 22.6684 13.0771 22.65 13.3247H18.3752C18.5132 15.436 19.2292 17.378 20.3564 18.9812C20.21 19.1564 20.0578 19.3266 19.9 19.4913C19.7063 19.6935 19.5042 19.8876 19.2943 20.0729C17.8976 18.1799 17.0184 15.8536 16.8724 13.3247H13.4277V22.547C13.1801 22.5654 12.93 22.5747 12.6777 22.5747C12.4254 22.5747 12.1753 22.5654 11.9277 22.547V13.3247H8.48307C8.33711 15.8536 7.4579 18.1799 6.06115 20.0729C5.85124 19.8876 5.64918 19.6935 5.45551 19.4913C5.29768 19.3266 5.14543 19.1564 4.99906 18.9812C6.12628 17.378 6.84228 15.436 6.98024 13.3247H2.70544C2.68708 13.0771 2.67773 12.827 2.67773 12.5747C2.67773 12.3224 2.68708 12.0723 2.70544 11.8247H6.98024C6.84228 9.71339 6.12628 7.77143 4.99907 6.16823C5.14543 5.99299 5.29768 5.82284 5.45551 5.65808C5.64918 5.45591 5.85124 5.26186 6.06116 5.07649C7.4579 6.96949 8.33711 9.29586 8.48307 11.8247H11.9277V2.60241C12.1753 2.58405 12.4254 2.57471 12.6777 2.57471C12.93 2.57471 13.1801 2.58405 13.4277 2.60241V11.8247Z" fill="#00A79D"/>
</svg>
