<svg width="25" height="25" viewBox="0 0 25 25" fill="none" xmlns="http://www.w3.org/2000/svg">
<path opacity="0.4" d="M17.1943 7.68018L7.19434 7.68018" stroke="#5C1D16" stroke-width="1.5" stroke-linecap="round" stroke-linejoin="round"/>
<path opacity="0.4" d="M17.1943 11.6802L7.19434 11.6802" stroke="#5C1D16" stroke-width="1.5" stroke-linecap="round" stroke-linejoin="round"/>
<path opacity="0.4" d="M12.1943 15.6802L7.19434 15.6802" stroke="#5C1D16" stroke-width="1.5" stroke-linecap="round" stroke-linejoin="round"/>
<path d="M19.1943 2.68018H5.19434C4.08977 2.68018 3.19434 3.57561 3.19434 4.68018V19.8345C3.19434 21.2197 4.56845 22.1855 5.87178 21.7163L7.43354 21.1541C7.92155 20.9784 8.45872 20.9991 8.93171 21.212L11.3736 22.3108C11.8956 22.5457 12.4931 22.5457 13.0151 22.3108L15.457 21.212C15.9299 20.9991 16.4671 20.9784 16.9551 21.1541L18.5169 21.7163C19.8202 22.1855 21.1943 21.2197 21.1943 19.8345V4.68018C21.1943 3.57561 20.2989 2.68018 19.1943 2.68018Z" stroke="#5C1D16" stroke-width="1.5" stroke-linecap="round"/>
</svg>
