<svg width="22" height="23" viewBox="0 0 22 23" fill="none" xmlns="http://www.w3.org/2000/svg">
<path fill-rule="evenodd" clip-rule="evenodd" d="M1.75 11.7129C1.75 6.60426 5.89137 2.46289 11 2.46289C16.1086 2.46289 20.25 6.60426 20.25 11.7129C20.25 16.8215 16.1086 20.9629 11 20.9629C5.89137 20.9629 1.75 16.8215 1.75 11.7129ZM11 0.962891C5.06294 0.962891 0.25 5.77583 0.25 11.7129C0.25 17.65 5.06294 22.4629 11 22.4629C16.9371 22.4629 21.75 17.65 21.75 11.7129C21.75 5.77583 16.9371 0.962891 11 0.962891ZM11 4.96289C10.5858 4.96289 10.25 5.29868 10.25 5.71289V9.85827C9.51704 10.155 9 10.8735 9 11.7129C9 12.8175 9.89543 13.7129 11 13.7129C12.1046 13.7129 13 12.8175 13 11.7129C13 10.8735 12.483 10.155 11.75 9.85827V5.71289C11.75 5.29868 11.4142 4.96289 11 4.96289Z" fill="#1C472F"/>
</svg>
