<svg width="25" height="25" viewBox="0 0 25 25" fill="none" xmlns="http://www.w3.org/2000/svg">
<path fill-rule="evenodd" clip-rule="evenodd" d="M2.92773 12.9436C2.92773 7.83497 7.0691 3.6936 12.1777 3.6936C17.2864 3.6936 21.4277 7.83497 21.4277 12.9436C21.4277 18.0522 17.2864 22.1936 12.1777 22.1936C7.0691 22.1936 2.92773 18.0522 2.92773 12.9436ZM12.1777 2.1936C6.24067 2.1936 1.42773 7.00654 1.42773 12.9436C1.42773 18.8807 6.24067 23.6936 12.1777 23.6936C18.1148 23.6936 22.9277 18.8807 22.9277 12.9436C22.9277 7.00654 18.1148 2.1936 12.1777 2.1936ZM12.1777 6.1936C11.7635 6.1936 11.4277 6.52939 11.4277 6.9436V11.089C10.6948 11.3857 10.1777 12.1043 10.1777 12.9436C10.1777 14.0482 11.0732 14.9436 12.1777 14.9436C13.2823 14.9436 14.1777 14.0482 14.1777 12.9436C14.1777 12.1043 13.6607 11.3857 12.9277 11.089V6.9436C12.9277 6.52939 12.5919 6.1936 12.1777 6.1936Z" fill="#1D125A"/>
</svg>
