<svg width="35" height="35" viewBox="0 0 35 35" fill="none" xmlns="http://www.w3.org/2000/svg">
<path d="M26.2499 2.91675H8.74992C5.52826 2.91675 2.91659 5.52842 2.91659 8.75008V26.2501C2.91659 29.4717 5.52826 32.0834 8.74992 32.0834H26.2499C29.4716 32.0834 32.0833 29.4717 32.0833 26.2501V8.75008C32.0833 5.52842 29.4716 2.91675 26.2499 2.91675Z" fill="#B2E5E2"/>
<path fill-rule="evenodd" clip-rule="evenodd" d="M24.3437 15.002C24.1744 15.4107 23.7756 15.6772 23.3332 15.6772L11.6666 15.6772C11.0625 15.6772 10.5728 15.1875 10.5728 14.5834C10.5728 13.9794 11.0625 13.4897 11.6666 13.4897L20.6927 13.4897L19.6432 12.4401C19.216 12.013 19.216 11.3205 19.6432 10.8933C20.0703 10.4662 20.7628 10.4662 21.19 10.8933L24.1066 13.81C24.4194 14.1228 24.513 14.5933 24.3437 15.002Z" fill="#606161"/>
<path fill-rule="evenodd" clip-rule="evenodd" d="M10.6562 19.9983C10.8255 19.5896 11.2243 19.3231 11.6667 19.3231L23.3333 19.3231C23.9374 19.3231 24.4271 19.8128 24.4271 20.4168C24.4271 21.0209 23.9374 21.5106 23.3333 21.5106L14.3072 21.5106L15.3567 22.5601C15.7839 22.9872 15.7839 23.6798 15.3567 24.1069C14.9296 24.534 14.2371 24.534 13.8099 24.1069L10.8933 21.1902C10.5805 20.8774 10.4869 20.407 10.6562 19.9983Z" fill="#606161"/>
</svg>
