<svg width="25" height="25" viewBox="0 0 25 25" fill="none" xmlns="http://www.w3.org/2000/svg">
<path d="M13.0059 13.707C13.0059 14.1212 12.6701 14.457 12.2559 14.457C11.8416 14.457 11.5059 14.1212 11.5059 13.707C11.5059 13.2928 11.8416 12.957 12.2559 12.957C12.6701 12.957 13.0059 13.2928 13.0059 13.707Z" fill="#00A79D"/>
<path d="M16.4985 9.46439C15.4127 8.3786 13.9127 7.70703 12.2558 7.70703C10.599 7.70703 9.09897 8.3786 8.01318 9.46439M10.1345 11.5857C10.6774 11.0428 11.4274 10.707 12.2558 10.707C13.0843 10.707 13.8343 11.0428 14.3771 11.5857M7.25586 21.707C11.0233 20.3824 13.1852 20.3651 17.2559 21.707M12.2559 20.707V17.707M2.25586 7.70703L2.25586 13.707C2.25586 15.9162 4.04672 17.707 6.25586 17.707L18.2559 17.707C20.465 17.707 22.2559 15.9162 22.2559 13.707V7.70703C22.2559 5.49789 20.465 3.70703 18.2559 3.70703L6.25586 3.70703C4.04672 3.70703 2.25586 5.49789 2.25586 7.70703Z" stroke="#00A79D" stroke-width="1.5" stroke-linecap="round" stroke-linejoin="round"/>
</svg>
