<svg width="25" height="24" viewBox="0 0 25 24" fill="none" xmlns="http://www.w3.org/2000/svg">
<g clip-path="url(#clip0_6812_6577)">
<path d="M8.04752 21.7512C17.1042 21.7512 22.0578 14.2479 22.0578 7.74101C22.0578 7.52789 22.0578 7.31573 22.0434 7.10453C23.007 6.40748 23.8389 5.54441 24.5 4.55573C23.6014 4.95413 22.648 5.21528 21.6718 5.33045C22.6998 4.71514 23.4692 3.74723 23.8366 2.60693C22.8701 3.18054 21.8126 3.58475 20.7099 3.80213C19.9675 3.01271 18.9856 2.48997 17.9162 2.31481C16.8468 2.13966 15.7494 2.32184 14.794 2.83318C13.8385 3.34452 13.0782 4.1565 12.6307 5.14348C12.1833 6.13045 12.0735 7.23739 12.3186 8.29301C10.3609 8.19481 8.44576 7.68604 6.69745 6.79973C4.94915 5.91343 3.40676 4.66939 2.1704 3.14837C1.54073 4.23236 1.34787 5.5156 1.6311 6.73679C1.91433 7.95798 2.65234 9.02532 3.69488 9.72149C2.91123 9.69853 2.14465 9.48712 1.46 9.10517V9.16757C1.46031 10.3044 1.85385 11.4062 2.57387 12.2859C3.29389 13.1657 4.29606 13.7693 5.4104 13.9944C4.68548 14.1922 3.92487 14.2211 3.18704 14.0789C3.50181 15.0573 4.11443 15.9128 4.93924 16.5259C5.76405 17.139 6.75983 17.479 7.78736 17.4985C6.76644 18.3009 5.59731 18.8942 4.34687 19.2444C3.09643 19.5947 1.78921 19.6949 0.5 19.5394C2.75183 20.9844 5.37192 21.7509 8.04752 21.7474" fill="#1DA1F2"/>
</g>
<defs>
<clipPath id="clip0_6812_6577">
<rect width="24" height="24" fill="white" transform="translate(0.5)"/>
</clipPath>
</defs>
</svg>
