<svg width="41" height="40" viewBox="0 0 41 40" fill="none" xmlns="http://www.w3.org/2000/svg">
<path d="M28.4902 33.8429L25.3458 29.5684C24.9087 28.9741 24.6754 28.2759 24.6754 27.5616V23.2302C24.6754 22.2312 25.569 21.4213 26.6714 21.4213H33.6838C35.6892 21.4213 36.4422 19.0416 34.7417 18.0784L26.5516 13.4394C25.3844 12.7783 24.6754 11.6189 24.6754 10.3715V6.33203C24.6754 4.67518 23.3322 3.33203 21.6754 3.33203H19.6913C18.0345 3.33203 16.6913 4.67517 16.6913 6.33203V10.3715C16.6913 11.6189 15.9823 12.7783 14.8151 13.4394L6.62502 18.0784C4.92447 19.0416 5.67754 21.4213 7.68291 21.4213H14.6953C15.7977 21.4213 16.6913 22.2312 16.6913 23.2302V27.5616C16.6913 28.2759 16.458 28.9741 16.0209 29.5684L12.8765 33.8429C11.7411 35.3864 13.5991 37.2939 15.4299 36.4643L18.8981 34.8928C20.0219 34.3835 21.3448 34.3835 22.4686 34.8928L25.9368 36.4643C27.7676 37.2939 29.6256 35.3864 28.4902 33.8429Z" stroke="#00A79D" stroke-width="1.5"/>
</svg>
