<svg width="41" height="40" viewBox="0 0 41 40" fill="none" xmlns="http://www.w3.org/2000/svg">
<path fill-rule="evenodd" clip-rule="evenodd" d="M19.5471 2.08897C19.7143 2.08435 19.8821 2.08203 20.0503 2.08203C29.9454 2.08203 37.967 10.1036 37.967 19.9987C37.967 20.167 37.9647 20.3347 37.9601 20.5019C37.941 21.192 37.3661 21.736 36.676 21.7169C35.9859 21.6979 35.442 21.123 35.461 20.4329C35.465 20.2887 35.467 20.1439 35.467 19.9987C35.467 11.4843 28.5647 4.58203 20.0503 4.58203C19.9051 4.58203 19.7603 4.58404 19.6161 4.58802C18.926 4.60707 18.3512 4.06309 18.3321 3.373C18.3131 2.6829 18.857 2.10803 19.5471 2.08897ZM15.2725 3.97775C15.5188 4.62267 15.1957 5.34516 14.5508 5.5915C14.2809 5.69458 14.0147 5.80504 13.7523 5.92263C13.1223 6.20497 12.3827 5.92315 12.1004 5.29316C11.8181 4.66318 12.0999 3.9236 12.7299 3.64126C13.035 3.50449 13.3448 3.37599 13.6587 3.25607C14.3037 3.00973 15.0261 3.33284 15.2725 3.97775ZM9.50856 7.02873C9.98292 7.53031 9.96086 8.32145 9.45929 8.79581C9.2497 8.99403 9.04567 9.19807 8.84745 9.40765C8.37309 9.90923 7.58194 9.93129 7.08037 9.45693C6.5788 8.98257 6.55673 8.19142 7.03109 7.68985C7.26124 7.4465 7.49813 7.2096 7.74148 6.97946C8.24306 6.5051 9.03421 6.52716 9.50856 7.02873ZM5.3448 12.0488C5.97478 12.3311 6.2566 13.0707 5.97426 13.7007C5.85667 13.963 5.74621 14.2293 5.64313 14.4992C5.3968 15.1441 4.6743 15.4672 4.02939 15.2208C3.38448 14.9745 3.06137 14.252 3.3077 13.6071C3.42763 13.2931 3.55613 12.9834 3.6929 12.6782C3.97524 12.0482 4.71482 11.7664 5.3448 12.0488ZM3.42463 18.2805C4.11473 18.2995 4.65871 18.8744 4.63965 19.5645C4.63567 19.7087 4.63367 19.8535 4.63367 19.9987C4.63367 20.1439 4.63567 20.2887 4.63965 20.4329C4.65871 21.123 4.11473 21.6979 3.42463 21.7169C2.73454 21.736 2.15966 21.192 2.14061 20.5019C2.13599 20.3347 2.13367 20.167 2.13367 19.9987C2.13367 19.8304 2.13599 19.6627 2.14061 19.4955C2.15966 18.8054 2.73454 18.2614 3.42463 18.2805ZM4.02939 24.7766C4.6743 24.5302 5.3968 24.8533 5.64313 25.4982C5.74621 25.7681 5.85667 26.0344 5.97426 26.2967C6.2566 26.9267 5.97478 27.6663 5.3448 27.9486C4.71482 28.231 3.97524 27.9492 3.6929 27.3192C3.55613 27.014 3.42763 26.7043 3.3077 26.3903C3.06137 25.7454 3.38448 25.0229 4.02939 24.7766ZM36.0713 24.7766C36.7162 25.0229 37.0393 25.7454 36.793 26.3903C36.673 26.7043 36.5445 27.014 36.4078 27.3192C36.1254 27.9492 35.3859 28.231 34.7559 27.9486C34.1259 27.6663 33.8441 26.9267 34.1264 26.2967C34.244 26.0344 34.3545 25.7681 34.4575 25.4982C34.7039 24.8533 35.4264 24.5302 36.0713 24.7766ZM7.08037 30.5405C7.58194 30.0661 8.37309 30.0882 8.84745 30.5897C9.04567 30.7993 9.2497 31.0034 9.45929 31.2016C9.96086 31.6759 9.98292 32.4671 9.50856 32.9687C9.03421 33.4702 8.24306 33.4923 7.74149 33.0179C7.49814 32.7878 7.26124 32.5509 7.03109 32.3076C6.55673 31.806 6.5788 31.0148 7.08037 30.5405ZM33.0203 30.5405C33.5219 31.0148 33.5439 31.806 33.0696 32.3076C32.8394 32.5509 32.6025 32.7878 32.3592 33.0179C31.8576 33.4923 31.0665 33.4702 30.5921 32.9687C30.1177 32.4671 30.1398 31.6759 30.6414 31.2016C30.851 31.0034 31.055 30.7993 31.2532 30.5897C31.7276 30.0882 32.5187 30.0661 33.0203 30.5405ZM28.0003 34.7042C28.2826 35.3342 28.0008 36.0738 27.3708 36.3561C27.0656 36.4929 26.7559 36.6214 26.4419 36.7413C25.797 36.9877 25.0745 36.6646 24.8282 36.0196C24.5819 35.3747 24.905 34.6522 25.5499 34.4059C25.8197 34.3028 26.086 34.1924 26.3484 34.0748C26.9784 33.7924 27.7179 34.0743 28.0003 34.7042ZM12.1004 34.7042C12.3827 34.0743 13.1223 33.7924 13.7523 34.0748C14.0147 34.1924 14.2809 34.3028 14.5508 34.4059C15.1957 34.6522 15.5188 35.3747 15.2725 36.0196C15.0261 36.6646 14.3037 36.9877 13.6587 36.7413C13.3448 36.6214 13.035 36.4929 12.7299 36.3561C12.0999 36.0738 11.8181 35.3342 12.1004 34.7042ZM18.3321 36.6244C18.3512 35.9343 18.926 35.3903 19.6161 35.4094C19.7603 35.4134 19.9051 35.4154 20.0503 35.4154C20.1956 35.4154 20.3403 35.4134 20.4845 35.4094C21.1746 35.3903 21.7495 35.9343 21.7686 36.6244C21.7876 37.3145 21.2436 37.8894 20.5535 37.9084C20.3863 37.913 20.2186 37.9154 20.0503 37.9154C19.8821 37.9154 19.7143 37.913 19.5471 37.9084C18.857 37.8894 18.3131 37.3145 18.3321 36.6244ZM20.0503 8.7487C19.36 8.7487 18.8003 9.30834 18.8003 9.9987V16.9077C17.5787 17.4022 16.717 18.5998 16.717 19.9987C16.717 21.8396 18.2094 23.332 20.0503 23.332C21.4492 23.332 22.6469 22.4703 23.1414 21.2487H26.717C27.4074 21.2487 27.967 20.6891 27.967 19.9987C27.967 19.3083 27.4074 18.7487 26.717 18.7487H23.1414C22.8031 17.9131 22.1359 17.2459 21.3003 16.9077V9.9987C21.3003 9.30834 20.7407 8.7487 20.0503 8.7487Z" fill="#00A79D"/>
</svg>
