<svg width="30" height="31" viewBox="0 0 30 31" fill="none" xmlns="http://www.w3.org/2000/svg">
<path opacity="0.4" d="M12.1555 28.4375H17.8443C20.4675 28.4375 22.6447 26.4103 22.8316 23.7937L23.7354 8.64005C21.0775 7.7076 18.1185 7.1875 14.9999 7.1875C11.8813 7.1875 8.92224 7.7076 6.26434 8.64005L7.16818 23.7937C7.35507 26.4103 9.53228 28.4375 12.1555 28.4375Z" fill="#00A79D"/>
<path fill-rule="evenodd" clip-rule="evenodd" d="M18.4374 6.45706V5.9375C18.4374 4.03902 16.8984 2.5 14.9999 2.5C13.1014 2.5 11.5624 4.03902 11.5624 5.9375V6.45706C8.58119 6.81987 5.79607 7.64747 3.33921 8.84474C2.87377 9.07156 2.68033 9.63275 2.90715 10.0982C3.13397 10.5636 3.69516 10.7571 4.1606 10.5303C7.27515 9.01247 10.9946 8.125 14.9999 8.125C19.0052 8.125 22.7247 9.01247 25.8392 10.5303C26.3047 10.7571 26.8658 10.5636 27.0927 10.0982C27.3195 9.63275 27.126 9.07156 26.6606 8.84474C24.2037 7.64747 21.4186 6.81987 18.4374 6.45706Z" fill="#00A79D"/>
<path fill-rule="evenodd" clip-rule="evenodd" d="M12.5 12.5C13.0178 12.5 13.4375 12.9197 13.4375 13.4375V20.9375C13.4375 21.4553 13.0178 21.875 12.5 21.875C11.9822 21.875 11.5625 21.4553 11.5625 20.9375V13.4375C11.5625 12.9197 11.9822 12.5 12.5 12.5Z" fill="#00A79D"/>
<path fill-rule="evenodd" clip-rule="evenodd" d="M17.5 12.5C18.0178 12.5 18.4375 12.9197 18.4375 13.4375V20.9375C18.4375 21.4553 18.0178 21.875 17.5 21.875C16.9822 21.875 16.5625 21.4553 16.5625 20.9375V13.4375C16.5625 12.9197 16.9822 12.5 17.5 12.5Z" fill="#00A79D"/>
</svg>
