<svg width="30" height="31" viewBox="0 0 30 31" fill="none" xmlns="http://www.w3.org/2000/svg">
<path opacity="0.4" d="M27.5 24.6875V20.9375C27.5 18.8664 25.8211 17.1875 23.75 17.1875H22.5C21.7131 17.1875 20.9721 17.558 20.5 18.1875L19 20.1875C18.0557 21.4465 16.5738 22.1875 15 22.1875C13.4262 22.1875 11.9443 21.4465 11 20.1875L9.5 18.1875C9.02786 17.558 8.28689 17.1875 7.5 17.1875H6.25C4.17893 17.1875 2.5 18.8664 2.5 20.9375V24.6875C2.5 26.7586 4.17893 28.4375 6.25 28.4375H23.75C25.8211 28.4375 27.5 26.7586 27.5 24.6875Z" fill="#00A79D"/>
<path fill-rule="evenodd" clip-rule="evenodd" d="M6.25 17.1875H7.5C8.28689 17.1875 9.02786 17.558 9.5 18.1875L11 20.1875C11.9443 21.4465 13.4262 22.1875 15 22.1875C16.5738 22.1875 18.0557 21.4465 19 20.1875L20.5 18.1875C20.9721 17.558 21.7131 17.1875 22.5 17.1875H23.75C24.1883 17.1875 24.609 17.2627 25 17.4009V8.4375C25 5.67608 22.7614 3.4375 20 3.4375H10C7.23858 3.4375 5 5.67608 5 8.4375V17.4009C5.39097 17.2627 5.81171 17.1875 6.25 17.1875ZM15.9375 8.4375C15.9375 7.91973 15.5178 7.5 15 7.5C14.4822 7.5 14.0625 7.91973 14.0625 8.4375V11.25H11.25C10.7322 11.25 10.3125 11.6697 10.3125 12.1875C10.3125 12.7053 10.7322 13.125 11.25 13.125H14.0625V15.9375C14.0625 16.4553 14.4822 16.875 15 16.875C15.5178 16.875 15.9375 16.4553 15.9375 15.9375V13.125H18.75C19.2678 13.125 19.6875 12.7053 19.6875 12.1875C19.6875 11.6697 19.2678 11.25 18.75 11.25H15.9375V8.4375Z" fill="#00A79D"/>
</svg>
