<svg width="24" height="24" viewBox="0 0 24 24" fill="none" xmlns="http://www.w3.org/2000/svg">
<path opacity="0.4" d="M16.242 3.81627C17.3303 2.72791 19.0949 2.72791 20.1833 3.81626C21.2716 4.90462 21.2716 6.66918 20.1833 7.75754L8.72776 19.213C8.16722 19.7736 7.45105 20.1526 6.67231 20.3008L3.72168 20.8625C3.37509 20.9285 3.07102 20.6244 3.137 20.2778L3.69869 17.3272C3.84693 16.5485 4.22594 15.8323 4.78649 15.2718L16.242 3.81627Z" fill="#00A79D"/>
<path d="M20.183 7.75754C21.2714 6.66918 21.2714 4.90462 20.183 3.81626C19.0946 2.72791 17.3301 2.72791 16.2417 3.81627L14.3857 5.83114L18.1682 9.61364L20.183 7.75754Z" fill="#00A79D"/>
</svg>
