<svg width="41" height="40" viewBox="0 0 41 40" fill="none" xmlns="http://www.w3.org/2000/svg">
<path d="M15.8334 14.9987C16.2252 13.8848 16.9986 12.9455 18.0166 12.3473C19.0347 11.749 20.2316 11.5303 21.3954 11.7299C22.5592 11.9295 23.6148 12.5346 24.3752 13.4379C25.1356 14.3413 25.5518 15.4846 25.5501 16.6654C25.5501 19.9987 20.5501 21.6654 20.5501 21.6654M20.6834 28.332H20.7001M37.3501 19.9987C37.3501 29.2034 29.8881 36.6654 20.6834 36.6654C11.4786 36.6654 4.01672 29.2034 4.01672 19.9987C4.01672 10.794 11.4786 3.33203 20.6834 3.33203C29.8881 3.33203 37.3501 10.794 37.3501 19.9987Z" stroke="#00A79D" stroke-width="1.33333" stroke-linecap="round" stroke-linejoin="round"/>
</svg>
