<svg width="41" height="40" viewBox="0 0 41 40" fill="none" xmlns="http://www.w3.org/2000/svg">
<path d="M12.0991 10.3711C9.36295 11.1939 6.44332 13.2019 4.85336 14.4041C4.07541 14.9923 3.64978 15.9202 3.64978 16.8955V33.0112C3.64978 34.4336 5.36295 35.2584 6.54356 34.4651C8.55937 33.1104 11.2976 31.5722 13.6498 31.3089C19.1803 30.6899 21.4526 37.2448 26.9831 36.6258C30.0952 36.2774 33.8832 33.6972 35.7795 32.2634C36.5575 31.6751 36.9831 30.7473 36.9831 29.772V13.6563C36.9831 12.2338 35.2699 11.409 34.0893 12.2024C32.3473 13.373 30.0658 14.6808 27.9601 15.1843" stroke="#00A79D" stroke-width="1.5"/>
<path d="M28.6498 11.332C28.6498 15.7503 24.4832 23.332 20.3165 23.332C16.1498 23.332 11.9832 15.7503 11.9832 11.332C11.9832 6.91375 15.7141 3.33203 20.3165 3.33203C24.9189 3.33203 28.6498 6.91375 28.6498 11.332Z" stroke="#00A79D" stroke-width="1.5"/>
<path d="M22.8165 10.832C22.8165 12.2127 21.6972 13.332 20.3165 13.332C18.9358 13.332 17.8165 12.2127 17.8165 10.832C17.8165 9.45132 18.9358 8.33203 20.3165 8.33203C21.6972 8.33203 22.8165 9.45132 22.8165 10.832Z" stroke="#00A79D" stroke-width="1.5"/>
</svg>
