<svg width="41" height="40" viewBox="0 0 41 40" fill="none" xmlns="http://www.w3.org/2000/svg">
<ellipse cx="16.717" cy="29.1654" rx="11.6667" ry="5.83333" stroke="#00A79D" stroke-width="1.5" stroke-linejoin="round"/>
<circle cx="16.717" cy="11.6667" r="6.66667" stroke="#00A79D" stroke-width="1.5" stroke-linejoin="round"/>
<path fill-rule="evenodd" clip-rule="evenodd" d="M24.7855 17.574C24.4359 18.0506 24.045 18.4952 23.6182 18.9023C24.076 19.0197 24.5558 19.0821 25.0502 19.0821C28.2259 19.0821 30.8002 16.5077 30.8002 13.3321C30.8002 10.4361 28.6594 8.04019 25.8739 7.64062C26.1094 8.17555 26.2994 8.73501 26.4389 9.31412C28.1042 9.88958 29.3002 11.4711 29.3002 13.3321C29.3002 15.6793 27.3974 17.5821 25.0502 17.5821C24.9613 17.5821 24.8731 17.5793 24.7855 17.574Z" fill="#00A79D"/>
<path fill-rule="evenodd" clip-rule="evenodd" d="M31.6799 29.8151C31.6107 30.4191 31.4458 31.007 31.1943 31.573C31.6238 31.4412 32.0301 31.2956 32.4099 31.1374C33.3689 30.7378 34.194 30.2429 34.7908 29.655C35.3903 29.0645 35.8003 28.3354 35.8003 27.4988C35.8003 26.6623 35.3903 25.9332 34.7908 25.3427C34.194 24.7548 33.3689 24.2599 32.4099 23.8602C31.0174 23.28 29.2672 22.8695 27.3298 22.6875C28.25 23.2505 29.051 23.8862 29.7076 24.5794C30.4964 24.7608 31.2115 24.9859 31.8329 25.2449C32.6835 25.5993 33.3229 26.0022 33.7381 26.4113C34.1508 26.8177 34.3003 27.1848 34.3003 27.4988C34.3003 27.8129 34.1508 28.1799 33.7381 28.5864C33.3229 28.9955 32.6835 29.3984 31.8329 29.7528C31.7825 29.7738 31.7315 29.7946 31.6799 29.8151Z" fill="#00A79D"/>
</svg>
